<svg width="265" height="191" viewBox="0 0 265 191" fill="none" xmlns="http://www.w3.org/2000/svg">
<path d="M242.071 112.177C241.857 113.645 241.675 114.563 241.63 114.766C240.498 120.05 238.683 125.164 236.231 129.979C235.533 131.36 234.786 132.721 233.99 134.063C231.67 137.966 229.014 141.659 226.053 145.1C224.263 147.202 222.346 149.241 220.301 151.215C211.49 159.789 200.635 167.121 188.723 173.051C186.486 174.167 184.213 175.231 181.904 176.243C174.598 179.448 167.076 182.14 159.395 184.297C157.804 184.744 156.213 185.168 154.622 185.568C151.851 186.266 149.067 186.892 146.29 187.444C142.538 188.192 138.799 188.808 135.074 189.293C130.301 189.914 125.588 190.308 120.959 190.487C115.431 190.679 109.897 190.585 104.379 190.206C101.548 190.021 98.6757 189.759 95.7792 189.422H95.7584C93.189 189.125 90.6037 188.771 88.0026 188.36C87.2926 188.246 86.5827 188.127 85.8697 188.008C81.0522 187.181 76.2197 186.149 71.438 184.905C71.3515 184.885 71.265 184.864 71.1785 184.837L71.0353 184.801L70.6326 184.694C66.3729 183.566 62.1639 182.268 58.0473 180.795C55.1508 179.76 52.2991 178.635 49.516 177.421C48.1915 176.846 46.884 176.25 45.5933 175.631C44.4121 175.068 43.2447 174.487 42.0913 173.886C35.2871 170.354 29.0287 166.223 23.6206 161.462C21.1729 159.313 18.8802 156.993 16.7597 154.521C13.5359 150.778 10.8115 146.633 8.65488 142.189C7.59433 139.991 6.6912 137.72 5.95228 135.394C5.64404 134.429 5.36264 133.449 5.1081 132.452C3.95666 127.894 3.32028 123.222 3.21091 118.522C3.18108 117.398 3.18108 116.269 3.21091 115.133C3.30552 111.184 3.75982 107.252 4.56817 103.386C6.71295 93.1991 11.3992 83.7759 18.9074 77.4907C31.8357 66.6624 51.795 66.2686 64.1595 67.3008C68.977 67.7035 72.6431 68.3209 74.3017 68.6252C76.7507 69.0756 79.149 69.6335 81.5742 70.2181C90.562 72.3808 99.9286 74.8806 113.567 73.3473C114.987 73.1862 119.936 72.5896 128.995 70.066C135.763 68.2299 142.377 65.8651 148.775 62.9933L149.625 62.6055C150.35 62.2684 151.048 61.9373 151.731 61.6062L152.25 61.3527C153.626 60.6785 154.935 60.0133 156.164 59.363L156.295 59.2914L156.799 59.0259C156.816 59.0188 156.832 59.0098 156.847 58.9991C158.655 58.0475 160.352 57.1258 162.011 56.2517L163.037 55.7148C163.275 55.5925 163.514 55.4672 163.753 55.3479L164.242 55.0973C165.238 54.5962 166.229 54.1129 167.225 53.6536C168.797 52.9347 170.411 52.2724 172.129 51.6758C173.483 51.2015 174.9 50.7809 176.416 50.3872C191.438 46.5659 213.903 47.786 228.194 61.0126C239.828 71.7902 242.644 87.3793 242.865 99.007C242.952 103.411 242.686 107.815 242.071 112.177Z" fill="#E6EDFA"/>
<path d="M146.281 103.956V187.429C137.932 189.116 129.461 190.131 120.95 190.463C99.1737 191.259 72.1448 187.262 49.5069 177.4C45.7466 175.768 42.0754 173.938 38.5085 171.918C36.3508 170.693 34.2627 169.4 32.2442 168.04C30.3988 166.803 28.6179 165.51 26.9017 164.162C25.7781 163.273 24.6843 162.361 23.6204 161.426C15.4351 154.223 9.19165 145.575 5.94615 135.364C5.64785 134.401 5.34956 133.422 5.10495 132.426C3.95444 127.877 3.31806 123.213 3.20776 118.522V115.136C3.30237 111.189 3.75667 107.258 4.56503 103.392H26.4304V133.541H30.1741V73.4281H53.3967V163.879H67.6286V89.1604L123.062 116.875V103.956C123.062 101.075 124.206 98.3114 126.244 96.274C128.281 94.2366 131.044 93.092 133.926 93.092H135.417C136.844 93.092 138.257 93.373 139.575 93.919C140.893 94.465 142.09 95.2652 143.099 96.274C144.108 97.2829 144.908 98.4805 145.454 99.7986C146 101.117 146.281 102.529 146.281 103.956Z" fill="#D8DFF3"/>
<path d="M242.068 103.309V112.189C241.856 113.654 241.674 114.576 241.63 114.775C234.13 150.142 195.211 175.366 154.616 185.559V82.4279H177.835V160.32H181.582V113.588L204.802 103.392V103.309C204.77 100.842 205.229 98.3936 206.152 96.1055C207.074 93.8175 208.442 91.7353 210.175 89.9799C211.908 88.2245 213.973 86.8307 216.249 85.8794C218.525 84.9281 220.968 84.4383 223.435 84.4383C225.902 84.4383 228.344 84.9281 230.621 85.8794C232.897 86.8307 234.961 88.2245 236.695 89.9799C238.428 91.7353 239.796 93.8175 240.718 96.1055C241.64 98.3936 242.099 100.842 242.068 103.309Z" fill="#D8DFF3"/>
<path d="M233.99 134.075C231.67 137.978 229.014 141.671 226.053 145.112V138.508C226.053 136.059 229.406 134.075 233.546 134.075H233.99Z" fill="#BDCFD3"/>
<path d="M87.9967 188.339C87.2867 188.226 86.5768 188.106 85.8639 187.987C76.3996 186.389 67.0909 183.976 58.0414 180.777L71.6081 144.385L87.9967 188.339Z" fill="#CAD4EF"/>
<path d="M45.5903 175.614C34.2341 170.191 24.1844 163.198 16.7507 154.5L27.236 126.37L45.5903 175.614Z" fill="#CAD4EF"/>
<path d="M236.231 129.991C235.533 131.372 234.786 132.733 233.99 134.075C231.669 137.977 229.013 141.67 226.053 145.112C224.251 147.214 222.334 149.253 220.301 151.227C204.617 166.485 182.468 177.812 159.395 184.303C157.804 184.748 156.213 185.171 154.622 185.571C151.852 186.269 149.073 186.894 146.287 187.447C142.539 188.195 138.801 188.811 135.074 189.296C135.615 188.853 136.185 188.448 136.781 188.082C140.22 185.994 144.238 184.882 147.409 182.415C145.765 181.159 147.066 178.537 148.548 177.093C152.089 173.664 156.32 171.029 160.958 169.361C160.212 163.538 166.605 158.05 172.248 159.666C172.284 158.241 172.826 156.874 173.776 155.811C174.726 154.748 176.024 154.057 177.437 153.862C178.849 153.668 180.285 153.982 181.488 154.748C182.691 155.515 183.581 156.684 184.001 158.047C184.243 156.004 184.816 154.015 185.699 152.158C186.471 150.532 188.888 150.667 189.454 152.364C189.453 152.375 189.453 152.386 189.454 152.397C191.325 148.632 197.21 147.758 200.098 150.819C199.089 147.069 203.606 143.155 207.173 144.686C205.461 142.174 204.999 138.666 206.612 136.089C208.226 133.511 212.149 132.488 214.5 134.418C212.829 131.572 214.932 127.328 218.204 126.931C219.878 126.728 221.533 127.372 223.219 127.414C224.089 127.434 224.948 127.204 225.692 126.752C227.556 125.577 229.993 125.753 231.479 127.378C232.487 128.514 233.273 129.83 233.794 131.256C234.641 130.857 235.443 130.418 236.231 129.991Z" fill="#CAD4EF"/>
<path d="M84.0859 56.6723C74.0511 54.5097 63.4197 50.3543 58.4798 41.3546C56.705 38.1211 55.8101 34.1716 57.1136 30.7232C58.8647 26.0907 64.0282 23.6446 68.9293 22.9346C75.0606 22.0586 81.3118 23.1544 86.7795 26.0638C94.2132 30.0461 100.179 37.3544 108.532 38.5297C114.921 39.4246 121.126 36.4745 127.283 34.5355C133.44 32.5966 140.969 31.9433 145.598 36.4416C146.702 37.5185 146.887 38.9504 146.994 39.532C147.889 44.454 143.021 48.9702 141.258 50.6049C138.854 52.8332 133.267 57.0452 115.774 58.4562C106.372 59.2138 96.7756 59.4018 84.0859 56.6723Z" fill="#E6EDFA"/>
<path d="M59.9565 56.8635H1.22731C0.232735 55.1307 -0.173876 53.1224 0.0683401 51.1391C0.310556 49.1559 1.18857 47.3045 2.57096 45.862C3.95334 44.4195 5.76574 43.4635 7.73685 43.1371C9.70796 42.8108 11.7318 43.1316 13.5053 44.0515C13.6679 41.989 14.2787 39.9868 15.295 38.1848C16.3114 36.3827 17.7088 34.8242 19.3897 33.618C21.0706 32.4118 22.9945 31.587 25.0272 31.2012C27.0598 30.8154 29.1521 30.8778 31.1581 31.3842C33.1641 31.8906 35.0354 32.8287 36.6413 34.1331C38.2473 35.4374 39.5492 37.0765 40.4562 38.936C41.3632 40.7955 41.8535 42.8306 41.8927 44.8991C41.9319 46.9677 41.5192 49.0199 40.6834 50.9124C47.0998 52.9558 53.3939 55.4466 59.9565 56.8635Z" fill="#DAE8EB"/>
<path d="M185.878 75.2476H217.48C218.019 74.3152 218.241 73.233 218.112 72.1638C217.983 71.0945 217.511 70.0959 216.766 69.3182C216.02 68.5405 215.043 68.0258 213.98 67.8513C212.917 67.6769 211.827 67.8522 210.872 68.3509C210.786 67.2404 210.458 66.1623 209.911 65.1918C209.364 64.2214 208.612 63.382 207.707 62.7325C206.803 62.0829 205.767 61.6388 204.673 61.4312C203.578 61.2236 202.452 61.2574 201.372 61.5305C200.292 61.8035 199.285 62.3091 198.421 63.0119C197.557 63.7147 196.857 64.5978 196.369 65.5994C195.882 66.6009 195.619 67.6969 195.6 68.8105C195.58 69.9241 195.804 71.0287 196.256 72.0468C192.795 73.1416 189.41 74.4839 185.878 75.2476Z" fill="#D8DFF3"/>
<path d="M157.017 35.2963H237.146C238.51 32.9324 239.07 30.19 238.742 27.4808C238.414 24.7717 237.216 22.2421 235.327 20.2718C233.439 18.3016 230.963 16.9971 228.27 16.5543C225.577 16.1115 222.814 16.5542 220.394 17.8159C220.165 15.0074 219.327 12.2825 217.938 9.83087C216.549 7.37926 214.642 5.25988 212.35 3.62029C210.059 1.98071 207.437 0.860319 204.668 0.337138C201.9 -0.186043 199.05 -0.0994436 196.318 0.590904C193.586 1.28125 191.037 2.55876 188.85 4.33447C186.662 6.11019 184.887 8.34145 183.649 10.8729C182.412 13.4043 181.741 16.1751 181.683 18.9923C181.625 21.8096 182.182 24.6055 183.315 27.1855C174.557 29.9627 165.972 33.3603 157.017 35.2963Z" fill="#DAE8EB"/>
<path d="M147.964 187.089C147.403 187.206 146.845 187.322 146.284 187.432C145.816 187.528 145.348 187.617 144.879 187.707C144.545 187.769 144.211 187.835 143.877 187.895C143.474 187.969 143.069 188.044 142.666 188.113C142.368 188.169 142.069 188.22 141.786 188.268L140.667 188.456L139.31 188.676L139.179 188.694L137.866 188.894C136.932 189.031 136 189.161 135.071 189.282C134.475 189.359 133.878 189.433 133.281 189.503L131.7 189.682C131.402 189.717 131.104 189.747 130.806 189.774L130.108 189.846L129.251 189.926C128.87 189.965 128.485 189.998 128.103 190.028L127.873 190.048C127.327 190.096 126.782 190.138 126.239 190.177H126.146C125.639 190.213 125.132 190.248 124.625 190.278H124.365L123.074 190.35C122.361 190.389 121.651 190.418 120.944 190.445C119.154 190.511 117.325 190.544 115.458 190.544H113.877C113.406 190.544 112.928 190.544 112.454 190.523H111.858L110.587 190.49H110.524C109.966 190.49 109.409 190.454 108.848 190.43C107.824 190.389 106.794 190.338 105.76 190.278H105.584L105.059 190.245C104.624 190.219 104.185 190.192 103.747 190.159L102.536 190.069C101.852 190.02 101.169 189.963 100.486 189.899L99.8122 189.84L99.0188 189.765L98.4222 189.705C97.2409 189.586 96.0557 189.455 94.8664 189.312C94.3444 189.249 93.8224 189.186 93.3004 189.118L92.1847 188.969L91.2898 188.846C90.1891 188.694 89.0884 188.527 87.9876 188.354L86.9317 188.184L85.8638 188.005L84.8346 187.823C84.1326 187.7 83.4306 187.571 82.7286 187.435C82.3856 187.373 82.0455 187.307 81.7055 187.238C81.431 187.188 81.1566 187.134 80.8851 187.077L81.4817 178.34L81.8099 173.585H88.6469H115.157H146.562L147.129 179.035L147.692 184.446V184.482L147.743 184.992L147.964 187.089Z" fill="#687ED4"/>
<path d="M146.562 173.546L81.4817 178.316L81.8068 173.561L146.562 173.546Z" fill="#4863C9"/>
<path d="M114.918 184.953L116.055 184.959L115.998 173.535L114.859 173.529L114.918 184.953Z" fill="#4863C9"/>
<path d="M117.349 181.532C117.859 181.557 118.369 181.481 118.85 181.307C119.33 181.134 119.771 180.866 120.147 180.521C122.387 178.376 121.388 173.645 121.34 173.445L120.231 173.678C120.231 173.72 121.126 177.988 119.357 179.691C118.569 180.443 117.307 180.586 115.604 180.127L115.306 181.228C115.971 181.418 116.658 181.52 117.349 181.532Z" fill="#4863C9"/>
<path d="M81.2669 186.152C82.0395 186.182 82.8095 186.047 83.5267 185.759C84.2438 185.47 84.8918 185.032 85.4282 184.476C88.6618 181.105 87.7848 173.838 87.746 173.531L86.6095 173.659C86.6095 173.728 87.4566 180.696 84.593 183.679C83.6175 184.696 82.3438 185.123 80.7151 184.983L80.6345 186.125C80.8453 186.143 81.0561 186.152 81.2669 186.152Z" fill="#4863C9"/>
<path d="M146.502 185.09C146.838 185.09 147.173 185.055 147.501 184.986L147.272 183.873C146.828 183.988 146.363 183.993 145.917 183.889C145.471 183.786 145.057 183.575 144.709 183.277C141.95 180.95 142.084 173.597 142.087 173.522L140.957 173.49C140.957 173.815 140.813 181.472 143.987 184.148C144.684 184.755 145.577 185.09 146.502 185.09Z" fill="#4863C9"/>
<path d="M175.909 128.59L155.514 145.047L146.705 127.447V173.555H81.8099V126.722L71.8407 142.729L51.6757 124.42L71.9063 91.7378C73.3976 89.3283 75.4799 87.3398 77.9555 85.9611C80.4312 84.5823 83.218 83.859 86.0517 83.8597H141.941C144.432 83.8593 146.891 84.4186 149.136 85.4961C151.382 86.5737 153.356 88.142 154.914 90.0853C155.551 90.8768 156.113 91.7256 156.594 92.6208L175.909 128.59Z" fill="#9ACEDB"/>
<path d="M131.318 54.3517C131.318 54.3517 132.735 60.9143 131.497 62.206C130.259 63.4976 125.376 50.8557 131.318 54.3517Z" fill="#32477B"/>
<path d="M112.895 46.6318L129.657 51.6343C136.431 79.0928 124.443 78.9198 124.443 78.9198L124.842 83.1795C124.964 84.4555 124.81 85.7427 124.391 86.954C123.971 88.1653 123.297 89.2724 122.413 90.2004C121.529 91.1284 120.455 91.8556 119.266 92.3329C118.076 92.8102 116.798 93.0263 115.518 92.9667C114.342 92.9158 113.188 92.6335 112.122 92.136C111.055 91.6385 110.097 90.9356 109.303 90.0676C108.509 89.1995 107.893 88.1833 107.492 87.0771C107.091 85.9709 106.912 84.7965 106.965 83.621L107.789 65.198L104.573 65.0548C103.28 64.9968 102.064 64.4278 101.19 63.4729C100.317 62.518 99.859 61.2555 99.9164 59.9628C99.9164 59.7839 99.9403 59.6079 99.9642 59.4349C100.173 57.9032 100.982 56.5173 102.213 55.582C103.443 54.6467 104.995 54.2385 106.527 54.4473L108.212 54.677L112.895 46.6318Z" fill="#FFC1C2"/>
<path d="M130.391 54.5367H130.322C124.655 54.8589 117.886 53.7193 114.832 53.1227C114.396 53.0417 113.945 53.1127 113.555 53.3239C113.165 53.5351 112.86 53.8737 112.69 54.2831C111.89 56.1415 110.539 57.809 109.474 58.9456C109.355 59.073 109.2 59.1605 109.029 59.1963C108.858 59.2321 108.681 59.2144 108.521 59.1455C108.36 59.0767 108.225 58.9601 108.134 58.8117C108.042 58.6632 107.999 58.4902 108.009 58.3161L108.174 55.4614C108.187 55.2472 108.119 55.0358 107.982 54.8698C107.846 54.7038 107.652 54.5955 107.44 54.5665L106.545 54.4412C105.014 54.2324 103.462 54.6402 102.232 55.5749C101.001 56.5096 100.192 57.8947 99.9822 59.4258C99.9584 59.6018 99.9435 59.7778 99.9345 59.9568C99.9345 60.0314 99.9345 60.103 99.9345 60.1775C99.9356 61.4334 100.421 62.6406 101.289 63.5479C102.158 64.4551 103.342 64.9927 104.597 65.0488L107.813 65.1919L107.464 72.9627C88.7364 51.5089 103.565 40.9342 103.565 40.9342C103.532 39.1146 105.056 38.5806 106.461 38.4673C107.432 38.4068 108.399 38.6374 109.238 39.1295C112.204 40.7821 117.117 37.3815 122.283 36.0749C124.261 35.5768 131.53 33.7392 134.6 36.9698C138.746 41.3966 134.296 54.2831 130.391 54.5367Z" fill="#32477B"/>
<path d="M102.625 60.6132C102.625 60.5953 102.16 58.9516 102.977 57.9911C103.523 57.3528 104.54 57.1201 106.002 57.2991L106.112 56.4042C104.323 56.1864 103.037 56.5265 102.285 57.4124C101.149 58.7518 101.73 60.7862 101.757 60.8727L102.625 60.6132Z" fill="#ED9C9C"/>
<path d="M128.157 66.2777L125.242 59.9926L124.419 60.3744L126.966 65.8661L123.545 67.6141L123.957 68.4225L128.157 66.2777Z" fill="#ED9C9C"/>
<path d="M129.031 59.8731C129.093 60.5145 129.445 61.0037 129.821 60.9679C130.197 60.9321 130.445 60.3713 130.382 59.7419C130.372 59.6151 130.347 59.4899 130.307 59.369C130.261 59.1929 130.179 59.0283 130.066 58.8858C129.787 58.8664 129.507 58.8664 129.228 58.8858C129.133 59.0285 129.07 59.1905 129.046 59.3601C129.017 59.5296 129.012 59.7022 129.031 59.8731Z" fill="#32477B"/>
<path d="M115.637 56.5115C115.63 56.4786 115.63 56.4447 115.637 56.4118C115.644 56.3789 115.657 56.3477 115.676 56.32C115.695 56.2922 115.719 56.2685 115.747 56.2502C115.775 56.2318 115.807 56.2193 115.84 56.2132L120.824 55.1811C121.08 55.1278 121.346 55.1643 121.578 55.2844C121.81 55.4045 121.994 55.6008 122.098 55.8403L122.199 56.076C122.247 56.1826 122.268 56.2995 122.259 56.416C122.253 56.5114 122.227 56.6046 122.185 56.6903C122.143 56.7759 122.084 56.8524 122.012 56.9153C121.94 56.9782 121.856 57.0262 121.765 57.0568C121.675 57.0873 121.579 57.0997 121.484 57.0932L115.875 56.7173C115.818 56.7144 115.764 56.6926 115.721 56.6554C115.678 56.6181 115.648 56.5675 115.637 56.5115Z" fill="#32477B"/>
<path d="M131.939 55.8788C131.944 55.8196 131.926 55.7608 131.888 55.7151C131.85 55.6693 131.795 55.6403 131.736 55.6342L127.298 55.2017C127.072 55.1781 126.845 55.2323 126.655 55.3555C126.464 55.4787 126.322 55.6634 126.251 55.8788L126.185 56.0936C126.154 56.1899 126.147 56.2923 126.164 56.3919C126.178 56.4741 126.209 56.5527 126.254 56.6231C126.299 56.6934 126.357 56.7542 126.426 56.8019C126.494 56.8496 126.571 56.8833 126.653 56.901C126.734 56.9186 126.819 56.92 126.901 56.905L131.754 56.0578C131.8 56.0507 131.842 56.0296 131.875 55.9976C131.908 55.9656 131.93 55.9241 131.939 55.8788Z" fill="#32477B"/>
<path d="M124.848 83.2418C121.331 82.791 118.079 81.1324 115.649 78.5496C118.334 79.5847 124.443 78.9403 124.443 78.9403L124.848 83.2418Z" fill="#ED9C9C"/>
<path d="M153.515 31.6213C152.093 31.1229 150.542 31.1292 149.124 31.6392C148.953 31.6979 148.797 31.7928 148.667 31.9176C148.537 32.0423 148.435 32.1939 148.369 32.3618C148.303 32.5297 148.274 32.7099 148.284 32.8901C148.295 33.0702 148.344 33.2459 148.429 33.4052V33.429C148.571 33.6899 148.8 33.8926 149.077 34.0017C149.353 34.1107 149.659 34.1192 149.941 34.0256C150.682 33.772 151.486 33.772 152.226 34.0256C153.616 34.5208 154.114 35.6782 153.661 36.9549C152.933 39.0132 149.485 39.3831 147.946 41.9455C147.762 42.2785 147.714 42.6696 147.812 43.037C147.91 43.4045 148.147 43.7198 148.472 43.917C148.797 44.1142 149.186 44.1782 149.557 44.0954C149.928 44.0126 150.253 43.7895 150.463 43.4728C151.901 40.97 155.66 40.8388 156.728 37.8051C157.787 34.8728 156.328 32.6117 153.515 31.6213ZM148.032 46.0024C147.62 45.834 147.167 45.7929 146.731 45.8843C146.295 45.9757 145.897 46.1953 145.587 46.5151C145.277 46.8348 145.07 47.2399 144.992 47.6784C144.914 48.1168 144.969 48.5685 145.15 48.9753C145.331 49.3821 145.63 49.7255 146.008 49.9612C146.385 50.1969 146.825 50.3141 147.27 50.2979C147.715 50.2816 148.145 50.1326 148.505 49.87C148.864 49.6074 149.137 49.2432 149.288 48.8243C149.398 48.5572 149.452 48.2707 149.448 47.982C149.444 47.6933 149.381 47.4085 149.263 47.1448C149.146 46.881 148.976 46.6438 148.765 46.4474C148.553 46.2511 148.304 46.0997 148.032 46.0024Z" fill="#32477B"/>
<path d="M84.4824 43.7857C83.4827 44.1262 82.6306 44.8003 82.0692 45.6948C82.0001 45.8007 81.9548 45.9204 81.9365 46.0455C81.9183 46.1707 81.9275 46.2983 81.9636 46.4195C81.9996 46.5407 82.0616 46.6526 82.1453 46.7474C82.229 46.8422 82.3323 46.9177 82.448 46.9686H82.4659C82.6577 47.0493 82.8716 47.0608 83.0708 47.0009C83.2701 46.941 83.4423 46.8135 83.5577 46.6405C83.8553 46.1794 84.2983 45.8308 84.8165 45.6501C85.7979 45.322 86.5735 45.7456 86.8748 46.6464C87.364 48.0962 85.6279 49.7905 85.8815 51.8726C85.9044 52.0579 85.9776 52.2333 86.0933 52.3797C86.2252 52.5484 86.4063 52.672 86.6115 52.7334C86.8166 52.7948 87.0358 52.7911 87.2387 52.7228C87.4647 52.6501 87.6581 52.5004 87.7851 52.2998C87.9121 52.0992 87.9647 51.8604 87.9338 51.625C87.6355 49.6234 89.6579 47.9231 88.939 45.7814C88.247 43.7291 86.4572 43.1175 84.4824 43.7857ZM87.6802 54.089C87.3796 54.1745 87.1114 54.348 86.9101 54.5872C86.7089 54.8264 86.5839 55.1204 86.5511 55.4312C86.5184 55.7421 86.5794 56.0556 86.7263 56.3315C86.8732 56.6074 87.0994 56.833 87.3756 56.9793C87.6519 57.1256 87.9655 57.1859 88.2763 57.1524C88.5871 57.1189 88.8808 56.9932 89.1195 56.7914C89.3582 56.5896 89.5311 56.321 89.6159 56.0202C89.7007 55.7193 89.6935 55.4 89.5953 55.1032C89.5411 54.9078 89.4476 54.7254 89.3205 54.5673C89.1934 54.4092 89.0354 54.2787 88.8561 54.1838C88.6769 54.0889 88.4801 54.0315 88.2779 54.0152C88.0757 53.9989 87.8724 54.024 87.6802 54.089Z" fill="#32477B"/>
<path d="M125.165 72.5838L125.362 71.7903C123.33 71.2825 121.248 71.0024 119.154 70.9551L119.136 71.7724C121.17 71.8161 123.192 72.0883 125.165 72.5838Z" fill="#ED9C9C"/>
<path d="M126.429 59.3899H126.462L131.199 59.1781C131.283 59.172 131.361 59.1333 131.417 59.0703C131.473 59.0074 131.502 58.9251 131.497 58.8411C131.49 58.7577 131.451 58.6805 131.388 58.625C131.326 58.5696 131.244 58.5401 131.16 58.5428L126.423 58.7546C126.338 58.7546 126.256 58.7885 126.196 58.8489C126.135 58.9093 126.101 58.9913 126.101 59.0767C126.101 59.1622 126.135 59.2441 126.196 59.3045C126.256 59.3649 126.338 59.3989 126.423 59.3989L126.429 59.3899Z" fill="#32477B"/>
<path d="M119.3 59.9447C119.36 60.5861 119.715 61.0783 120.088 61.0425C120.46 61.0067 120.714 60.4459 120.651 59.8135C120.641 59.6867 120.616 59.5616 120.577 59.4406C120.531 59.2638 120.448 59.099 120.332 58.9574C120.054 58.941 119.775 58.941 119.497 58.9574C119.403 59.1015 119.34 59.2643 119.315 59.4347C119.287 59.6032 119.282 59.7748 119.3 59.9447Z" fill="#32477B"/>
<path d="M116.782 59.524H116.812L121.549 59.3122C121.592 59.3104 121.633 59.3004 121.672 59.2826C121.71 59.2647 121.744 59.2395 121.773 59.2084C121.802 59.1772 121.824 59.1407 121.839 59.1009C121.853 59.0612 121.86 59.0189 121.858 58.9766C121.856 58.9343 121.846 58.8928 121.828 58.8544C121.811 58.8159 121.785 58.7814 121.754 58.7527C121.723 58.7241 121.687 58.7018 121.647 58.6873C121.607 58.6727 121.565 58.6661 121.522 58.6679L116.785 58.8767C116.705 58.8844 116.63 58.9219 116.576 58.9817C116.522 59.0415 116.491 59.1195 116.491 59.2003C116.491 59.2812 116.522 59.3591 116.576 59.419C116.63 59.4788 116.705 59.5163 116.785 59.524H116.782Z" fill="#32477B"/>
<path d="M146.708 115.843L155.514 145.047L146.708 127.432V115.843Z" fill="#579FAE"/>
<path d="M81.8098 115.843L71.8436 142.729L81.8098 126.737V115.843Z" fill="#579FAE"/>
<path d="M147.069 112.83H146.347V127.432H147.069V112.83Z" fill="#579FAE"/>
<path d="M82.1737 112.83H81.4518V127.432H82.1737V112.83Z" fill="#579FAE"/>
<path d="M69.7196 140.802L63.7059 148.823C63.0526 149.695 62.2124 150.411 61.247 150.917C60.2815 151.423 59.2151 151.706 58.1259 151.747C57.0367 151.787 55.9521 151.584 54.9517 151.151C53.9512 150.719 53.0601 150.068 52.3437 149.247L14.0867 105.376L26.317 94.5205L69.7196 140.802Z" fill="#FFC1C2"/>
<path d="M155.961 144.632L161.739 152.46C162.403 153.361 163.262 154.1 164.251 154.623C165.24 155.146 166.335 155.438 167.453 155.479C168.571 155.52 169.684 155.308 170.709 154.859C171.734 154.411 172.645 153.736 173.373 152.886L211.102 108.935L199.719 98.6674L155.961 144.632Z" fill="#FFC1C2"/>
<path d="M262.208 62.2764L231.293 39.3674C229.751 38.2247 227.575 38.5484 226.432 40.0905L194.416 83.2951C193.273 84.8371 193.597 87.0136 195.139 88.1563L226.053 111.065C227.595 112.208 229.772 111.884 230.914 110.342L262.931 67.1376C264.074 65.5955 263.75 63.4191 262.208 62.2764Z" fill="#687ED4"/>
<path d="M225.531 106.348L198.511 87.0724C197.469 86.3296 197.404 85.0201 198.349 84.146C210.817 72.6299 221.011 58.8745 228.4 43.5952C228.507 43.3342 228.674 43.1018 228.886 42.9165C229.099 42.7313 229.352 42.5983 229.625 42.5281C229.899 42.458 230.185 42.4527 230.46 42.5126C230.736 42.5726 230.994 42.6961 231.213 42.8733L256.604 61.69C257.097 62.081 257.449 62.6218 257.606 63.2306C257.764 63.8393 257.719 64.4829 257.478 65.0638C250.624 80.3736 240.991 94.2804 229.068 106.08C228.594 106.514 227.987 106.777 227.346 106.826C226.704 106.874 226.065 106.706 225.531 106.348Z" fill="#4863C9"/>
<path d="M224.868 104.41L199.531 85.6166C198.519 84.8679 198.472 83.5792 199.402 82.7172C211.426 71.5962 221.263 58.323 228.403 43.5832C228.958 42.4407 230.193 42.1126 231.216 42.8613L256.572 61.6542C257.073 62.052 257.428 62.6052 257.581 63.2266C257.733 63.8481 257.675 64.5027 257.416 65.0876C250.275 79.8275 240.439 93.1006 228.415 104.222C227.929 104.644 227.317 104.891 226.674 104.925C226.031 104.959 225.396 104.778 224.868 104.41Z" fill="white"/>
<path d="M250.926 53.4682L241.977 46.7564C241.504 46.4016 240.833 46.4975 240.478 46.9706L237.512 50.9249C237.157 51.398 237.253 52.0693 237.726 52.4241L246.675 59.1359C247.148 59.4907 247.82 59.3948 248.174 58.9217L251.14 54.9674C251.495 54.4943 251.399 53.823 250.926 53.4682Z" fill="#4863C9"/>
<path d="M249.788 68.0823L229.939 53.3612C229.839 53.2842 229.755 53.1873 229.694 53.0765C229.633 52.9657 229.595 52.8435 229.584 52.7174C229.572 52.5914 229.586 52.4643 229.626 52.3441C229.666 52.2239 229.73 52.1131 229.814 52.0189C229.88 51.9105 229.967 51.8168 230.07 51.7437C230.174 51.6706 230.291 51.6197 230.416 51.5942C230.54 51.5687 230.668 51.5692 230.792 51.5956C230.915 51.6219 231.033 51.6736 231.136 51.7474L250.999 66.4685C251.226 66.6289 251.383 66.8697 251.438 67.1418C251.494 67.4139 251.444 67.6969 251.298 67.9332C251.114 68.1475 250.854 68.2826 250.573 68.3103C250.292 68.3381 250.011 68.2564 249.788 68.0823Z" fill="#4863C9"/>
<path d="M244.831 76.5242L224.967 61.8031C224.866 61.7261 224.783 61.6292 224.722 61.5184C224.661 61.4076 224.623 61.2854 224.611 61.1593C224.599 61.0333 224.614 60.9062 224.653 60.786C224.693 60.6658 224.757 60.555 224.842 60.4608C224.907 60.3523 224.994 60.2587 225.098 60.1856C225.201 60.1125 225.319 60.0616 225.443 60.0361C225.567 60.0106 225.695 60.0111 225.819 60.0374C225.943 60.0638 226.06 60.1155 226.163 60.1893L246.027 74.9104C246.254 75.0708 246.411 75.3116 246.466 75.5837C246.521 75.8558 246.471 76.1388 246.325 76.3751C246.142 76.5852 245.885 76.7175 245.607 76.7452C245.33 76.7729 245.052 76.6939 244.831 76.5242Z" fill="#4863C9"/>
<path d="M239.034 84.346L219.171 69.6249C219.07 69.5479 218.987 69.4509 218.925 69.3402C218.864 69.2294 218.826 69.1071 218.815 68.9811C218.803 68.8551 218.817 68.7279 218.857 68.6077C218.897 68.4875 218.961 68.3768 219.045 68.2825C219.111 68.1741 219.198 68.0804 219.302 68.0074C219.405 67.9343 219.523 67.8834 219.647 67.8579C219.771 67.8324 219.899 67.8329 220.023 67.8592C220.147 67.8856 220.264 67.9373 220.367 68.0111L240.231 82.7262C240.457 82.8866 240.614 83.1274 240.67 83.3995C240.725 83.6716 240.675 83.9546 240.529 84.1909C240.346 84.4019 240.09 84.5354 239.812 84.5642C239.535 84.593 239.256 84.515 239.034 84.346Z" fill="#4863C9"/>
<path d="M218.735 105.651C216.146 107.909 212.638 110.468 209.712 110.856C204.294 111.581 199.113 100.481 199.113 100.481C199.113 100.481 199.083 97.6533 200.882 92.427C201.374 90.9952 202.004 89.3814 202.806 87.5976C202.989 87.1908 203.307 86.8597 203.706 86.6602C204.105 86.4607 204.56 86.4051 204.995 86.5028L209.124 87.4246L210.302 87.6871C210.367 87.7006 210.43 87.7206 210.49 87.7467C210.653 87.8133 210.797 87.9168 210.913 88.0488C211.028 88.1809 211.112 88.338 211.156 88.5077C211.201 88.6775 211.205 88.8553 211.169 89.0271C211.134 89.1989 211.058 89.36 210.95 89.4977C210.439 90.1331 209.556 90.7744 208.044 90.9594C207.701 91.0032 207.355 91.0232 207.009 91.0191C207.009 91.0191 207.113 91.4516 207.194 92.078C207.355 93.3697 207.418 95.4786 206.233 96.1796L206.257 96.2005L215.782 103.446L216.799 104.222L218.735 105.651Z" fill="#FFC1C2"/>
<path d="M173.343 126.379L158.67 148.298L155.964 144.635L173.343 126.379Z" fill="#ED9C9C"/>
<path d="M53.7339 123.763L67.6824 143.52L69.7198 140.802L53.7339 123.763Z" fill="#ED9C9C"/>
<path d="M33.5847 73.0912L33.0859 72.4664C32.5196 71.757 31.4854 71.641 30.776 72.2073L2.61652 94.6867C1.90709 95.253 1.79108 96.2872 2.35741 96.9967L2.85616 97.6214C3.42249 98.3309 4.4567 98.4469 5.16613 97.8805L33.3256 75.4012C34.035 74.8348 34.151 73.8006 33.5847 73.0912Z" fill="#9BCFDC"/>
<path d="M24.9263 81.74L22.7321 78.9915C22.1103 78.2125 20.9747 78.0851 20.1958 78.707L1.79504 93.3961C1.01609 94.0179 0.888718 95.1535 1.51055 95.9324L3.70471 98.681C4.32654 99.46 5.46209 99.5873 6.24104 98.9655L24.6418 84.2764C25.4207 83.6546 25.5481 82.519 24.9263 81.74Z" fill="#32477B"/>
<path d="M39.3466 81.4582C46.7882 81.4582 52.8208 75.4256 52.8208 67.984C52.8208 60.5424 46.7882 54.5098 39.3466 54.5098C31.905 54.5098 25.8724 60.5424 25.8724 67.984C25.8724 75.4256 31.905 81.4582 39.3466 81.4582Z" fill="#9BCFDC"/>
<path d="M39.3468 79.0449C45.4556 79.0449 50.4077 74.0927 50.4077 67.9839C50.4077 61.8751 45.4556 56.923 39.3468 56.923C33.238 56.923 28.2858 61.8751 28.2858 67.9839C28.2858 74.0927 33.238 79.0449 39.3468 79.0449Z" fill="#32477B"/>
<path d="M31.0688 65.2069C30.9837 65.0992 30.9296 64.9704 30.9122 64.8342C30.8949 64.6981 30.915 64.5598 30.9704 64.4343C31.9033 62.3085 33.6056 60.6143 35.7357 59.6914C37.8658 58.7686 40.2661 58.6854 42.4549 59.4586C42.638 59.5287 42.7864 59.6675 42.8686 59.8455C42.9508 60.0235 42.9602 60.2265 42.8949 60.4113C42.8295 60.5961 42.6945 60.7481 42.5187 60.8348C42.3429 60.9215 42.1402 60.9362 41.9538 60.8756C40.1236 60.2247 38.1148 60.2912 36.3316 61.0616C34.5484 61.8319 33.1231 63.2491 32.3426 65.0279C32.2622 65.2102 32.1127 65.3531 31.927 65.4252C31.7413 65.4974 31.5346 65.4929 31.3522 65.4127C31.2436 65.366 31.1468 65.2957 31.0688 65.2069Z" fill="white"/>
<path d="M30.9736 71.6052L30.9378 71.5574C30.5173 70.9256 30.2356 70.2119 30.1112 69.4632C29.9867 68.7146 30.0224 67.948 30.2159 67.2142C30.2823 67.0338 30.4154 66.8856 30.5877 66.8003C30.7601 66.715 30.9585 66.699 31.1423 66.7555C31.3261 66.8121 31.4813 66.9369 31.5758 67.1043C31.6704 67.2718 31.6972 67.4691 31.6507 67.6557C31.5186 68.1731 31.4963 68.7125 31.5852 69.2391C31.6741 69.7657 31.8722 70.2678 32.1668 70.7133C32.2573 70.8723 32.2867 71.0589 32.2494 71.2381C32.2122 71.4172 32.1109 71.5767 31.9645 71.6865C31.8181 71.7963 31.6367 71.8489 31.4542 71.8345C31.2718 71.82 31.1009 71.7396 30.9736 71.6082V71.6052Z" fill="white"/>
<path d="M28.9093 97.2235L26.9673 95.3263C26.5307 94.9002 26.2403 94.3467 26.138 93.7453C25.628 90.7623 23.7696 81.4852 20.3331 80.9363L18.9431 79.5433C18.3465 78.5171 16.5567 78.2815 15.5514 78.9646C14.6893 79.5612 13.8362 80.7245 14.2926 81.6642L14.3343 81.5449C14.3343 81.5449 10.2685 81.5926 9.84492 83.8567C9.84492 83.8567 6.26533 83.4062 5.7612 86.4161C5.26901 86.3803 3.6731 86.3206 2.59028 87.4124C2.26468 87.7617 2.01395 88.1738 1.85348 88.6235C1.66853 89.1634 1.25688 91.0099 7.47344 98.542C9.03653 100.439 9.84194 101.412 11.0322 102.518C12.4491 103.834 13.0815 104.15 14.2419 105.483C14.7549 106.08 17.5828 108.657 17.5828 108.657L20.8313 112.556L28.9093 97.2235Z" fill="#FFC1C2"/>
<path d="M18.2167 87.2474L17.5801 87.6359L18.5854 89.2834L19.222 88.895L18.2167 87.2474Z" fill="#E29474"/>
<path d="M18.9729 93.0053C18.7467 93.2403 18.476 93.4279 18.1765 93.5572C17.3233 93.927 16.2793 93.7749 15.0742 93.1127L15.4321 92.4594C16.4255 93.0053 17.2517 93.1455 17.8841 92.8741C18.7045 92.5221 19.0773 91.5198 19.2205 90.953L19.9424 91.1409C19.782 91.8343 19.4484 92.4757 18.9729 93.0053Z" fill="#ED9C9C"/>
<path d="M21.0552 93.265C20.3572 93.0025 19.7457 92.3074 19.2416 91.2007C18.9505 90.546 18.7199 89.866 18.5525 89.1693C18.4004 88.5727 18.296 88.0477 18.2333 87.6778L15.9364 88.9844C15.1347 89.5487 14.172 89.8386 13.192 89.8107C10.928 89.6973 9.49015 87.7017 9.43049 87.6182L9.19781 87.29L20.1394 80.6171L20.5272 81.2524L10.2956 87.4988C10.7609 88.0149 11.8258 88.9903 13.2278 89.0709C14.0581 89.0869 14.8716 88.8359 15.5486 88.355L18.8299 86.4876L18.8985 87.0424C18.9879 87.6988 19.1164 88.3493 19.2833 88.9903C19.4404 89.6448 19.656 90.2837 19.9277 90.8995C20.3483 91.8182 20.8226 92.391 21.3267 92.5729L21.0552 93.265Z" fill="#ED9C9C"/>
<path d="M14.8952 95.028C14.8242 95.1008 14.7474 95.1676 14.6655 95.2279C13.9645 95.7589 12.9533 95.8036 11.6527 95.3651C11.6649 96.0509 11.4092 96.7144 10.9398 97.2146C10.3133 97.8112 9.34089 97.9842 8.04626 97.7097L8.19541 97.0058C9.23946 97.2265 9.98521 97.1221 10.4386 96.7075C11.0949 96.078 10.9099 94.9177 10.9099 94.9177L10.8055 94.2823L11.4021 94.5269C12.7027 95.0608 13.6573 95.1235 14.233 94.676C14.934 94.151 14.9221 92.9847 14.9072 92.6834L12.9742 89.5184L13.5887 89.1426L15.6082 92.4507V92.5283C15.6261 92.57 15.7842 94.1152 14.8952 95.028Z" fill="#ED9C9C"/>
<path d="M6.14007 86.4097L5.5152 86.8168L10.8816 95.0551L11.5064 94.648L6.14007 86.4097Z" fill="#ED9C9C"/>
<path d="M14.6258 81.4442L14.0123 81.819L15.3589 84.0235L15.9724 83.6487L14.6258 81.4442Z" fill="#ED9C9C"/>
<path d="M115.944 96.3193C110.306 96.3193 105.453 91.9642 104.141 85.7267L103.759 83.919L104.355 83.7967L104.734 85.6044C105.987 91.5704 110.602 95.7227 115.953 95.7227C120.726 95.7227 125.054 92.2983 126.743 87.2003L127.882 83.7639L128.449 83.9518L127.31 87.3883C125.535 92.7308 120.968 96.3193 115.944 96.3193Z" fill="white"/>
<path d="M86.6749 84.6174C86.6752 86.1743 86.2059 87.695 85.3282 88.9809C84.4506 90.2668 83.2054 91.258 81.7555 91.8251C80.3056 92.3922 78.7184 92.5087 77.2012 92.1595C75.684 91.8102 74.3075 91.0114 73.2515 89.8675C74.8132 87.9879 76.7696 86.4752 78.9818 85.4369C81.194 84.3986 83.6077 83.8601 86.0515 83.8597H86.6481C86.663 84.1073 86.6749 84.3609 86.6749 84.6174Z" fill="white"/>
<path d="M154.908 90.0853C153.826 91.168 152.448 91.9056 150.947 92.2047C149.446 92.5038 147.89 92.3511 146.475 91.7658C145.061 91.1805 143.852 90.1889 143.002 88.9165C142.151 87.6441 141.697 86.148 141.696 84.6174C141.696 84.3609 141.696 84.1073 141.732 83.8597H141.941C144.431 83.8602 146.888 84.4199 149.133 85.4974C151.377 86.575 153.351 88.1428 154.908 90.0853Z" fill="white"/>
<path d="M54.3483 120.233L53.9325 120.661L73.6095 139.783L74.0252 139.355L54.3483 120.233Z" fill="white"/>
<path d="M172.461 122.359L153.232 140.703L153.643 141.135L172.873 122.791L172.461 122.359Z" fill="white"/>
<path d="M81.8098 134.373L85.7861 155.493C86.4259 158.889 88.1421 161.988 90.6806 164.332C93.2192 166.676 96.4451 168.14 99.8807 168.508L146.714 173.555H81.8098V134.373Z" fill="#579FAE"/>
<path d="M132.252 120.47C136.119 120.47 139.254 118.324 139.254 115.676C139.254 113.029 136.119 110.882 132.252 110.882C128.386 110.882 125.251 113.029 125.251 115.676C125.251 118.324 128.386 120.47 132.252 120.47Z" fill="white"/>
<path d="M132.252 118.266C134.966 118.266 137.165 117.106 137.165 115.676C137.165 114.246 134.966 113.087 132.252 113.087C129.539 113.087 127.339 114.246 127.339 115.676C127.339 117.106 129.539 118.266 132.252 118.266Z" fill="#9ACEDB"/>
</svg>
