<svg width="170" height="153" viewBox="0 0 170 153" fill="none" xmlns="http://www.w3.org/2000/svg">
<path d="M101.458 38.1809C102.241 39.2506 103.734 39.7429 105.081 39.3649C105.418 39.2711 105.737 39.1245 106.032 38.9341C107.503 37.9523 107.865 36.018 106.84 34.6289C106.233 33.8025 105.214 33.3072 104.112 33.3072C103.44 33.3072 102.802 33.4947 102.266 33.8464C100.78 34.8282 100.417 36.7742 101.458 38.1809Z" fill="url(#paint0_linear_7_2015)"/>
<path d="M93.069 30.4234C93.1247 31.3905 93.5706 32.2668 94.32 32.8881C95.3079 33.7438 96.6828 34.0369 97.9556 33.6852C98.6369 33.4918 99.2469 33.1255 99.7145 32.6272C100.399 31.9092 100.743 30.989 100.69 30.0248C100.634 29.0606 100.185 28.1756 99.4265 27.5279C98.7607 26.9623 97.8658 26.6516 96.9089 26.6516C95.7879 26.6516 94.7443 27.0766 94.0475 27.818C93.3601 28.5302 93.0163 29.4504 93.069 30.4234Z" fill="url(#paint1_linear_7_2015)"/>
<path d="M84.6893 28.6386C85.352 28.9844 86.0952 29.1661 86.8384 29.1661C87.2627 29.1661 87.6869 29.1075 88.0988 28.9932C89.226 28.6796 90.1581 27.9704 90.7155 27.0003C91.2946 26.0186 91.4339 24.8844 91.1088 23.8088C90.7805 22.7274 90.0311 21.8336 88.9937 21.2943C88.3837 20.9778 87.6714 20.8108 86.9375 20.8108C85.2746 20.8108 83.7076 21.646 82.9489 22.9384C81.7846 24.9606 82.5619 27.5191 84.6893 28.6386Z" fill="url(#paint2_linear_7_2015)"/>
<path d="M72.4727 26.1856C73.377 26.423 74.3865 26.4171 75.3155 26.1622C77.0342 25.6786 78.3534 24.4243 78.8458 22.8036C79.2205 21.5522 79.0594 20.2276 78.3906 19.0817C77.7186 17.9387 76.6192 17.1093 75.2907 16.7459C74.8696 16.6346 74.4268 16.576 73.9777 16.576C71.6614 16.576 69.5185 18.0677 68.8837 20.125C68.1188 22.704 69.729 25.4266 72.4727 26.1856Z" fill="url(#paint3_linear_7_2015)"/>
<path d="M57.6921 26.3878C58.3858 26.423 59.0609 26.3439 59.7174 26.1622C62.17 25.4764 63.9072 23.3956 64.0342 20.9837C64.1209 19.448 63.5666 17.9768 62.4704 16.8339C61.3896 15.7056 59.9156 15.0462 58.3239 14.9758L58.0266 14.967C54.8617 14.967 52.1428 17.4053 51.9663 20.4034C51.8084 23.548 54.3756 26.2325 57.6921 26.3878Z" fill="url(#paint4_linear_7_2015)"/>
<path d="M32.6583 24.9313C33.2591 28.1257 36.1855 30.4468 39.6197 30.4468C40.0285 30.4468 40.4435 30.4116 40.8522 30.3442C41.1093 30.3032 41.3663 30.2446 41.614 30.1772C45.0576 29.213 47.1912 25.96 46.5688 22.6073C45.9556 19.4216 43.0292 17.1035 39.6104 17.1035C39.2017 17.1035 38.7898 17.1387 38.3841 17.2061C34.5566 17.886 31.9832 21.35 32.6583 24.9313Z" fill="url(#paint5_linear_7_2015)"/>
<path d="M102.663 50.0325C103.344 49.3174 103.688 48.3913 103.629 47.4271C103.573 46.4629 103.124 45.5837 102.365 44.9478C101.69 44.3675 100.795 44.051 99.8322 44.051C98.7205 44.051 97.6924 44.4701 97.008 45.2027C96.3205 45.9178 95.9737 46.838 96.0263 47.8081C96.0728 48.7664 96.5125 49.6486 97.2712 50.2992C97.9804 50.8941 98.8877 51.2253 99.826 51.2253C100.195 51.2253 100.563 51.1754 100.919 51.0729C101.594 50.8882 102.195 50.5278 102.663 50.0325Z" fill="url(#paint6_linear_7_2015)"/>
<path d="M94.0568 41.2082C93.7224 40.1268 92.9668 39.23 91.9263 38.6879C91.3101 38.3684 90.6009 38.1984 89.867 38.1984C88.2041 38.1984 86.6774 39.0219 85.8815 40.3466C84.7264 42.3805 85.5161 44.9419 87.6497 46.0438C88.3124 46.3867 89.0495 46.5684 89.7834 46.5684C90.2045 46.5684 90.6288 46.5098 91.0406 46.3955C92.174 46.079 93.1 45.3698 93.6512 44.3968C94.2365 43.4121 94.3789 42.2867 94.0568 41.2082Z" fill="url(#paint7_linear_7_2015)"/>
<path d="M81.7908 40.1913C82.1593 38.9428 81.9951 37.6182 81.3232 36.4664C80.6481 35.3293 79.5487 34.5058 78.2264 34.1512C77.7991 34.034 77.3532 33.9783 76.901 33.9783C74.5847 33.9783 72.4511 35.4641 71.8317 37.5156C71.0483 40.1063 72.6431 42.823 75.3837 43.5674C76.322 43.8165 77.3315 43.8136 78.2667 43.5528C79.9761 43.0721 81.2891 41.8149 81.7908 40.1913Z" fill="url(#paint8_linear_7_2015)"/>
<path d="M66.9761 38.3772C67.0628 36.8503 66.5116 35.3821 65.4246 34.245C64.3408 33.1137 62.8668 32.4514 61.2689 32.3811C61.1605 32.3752 61.0583 32.3723 60.9561 32.3723C57.8501 32.3723 55.0847 34.8516 54.9206 37.7852C54.7503 40.9269 57.3175 43.6172 60.6402 43.7814C60.7579 43.7872 60.8725 43.7901 60.984 43.7901C61.5537 43.7901 62.1204 43.711 62.6686 43.5586C65.1057 42.8787 66.8367 40.795 66.9761 38.3772Z" fill="url(#paint9_linear_7_2015)"/>
<path d="M42.5368 34.4911C42.1312 34.4911 41.7224 34.5263 41.3167 34.5937C37.4954 35.2179 34.9282 38.6908 35.594 42.3307C35.9254 44.0891 36.9566 45.6218 38.508 46.6446C40.0409 47.6586 41.933 48.0543 43.7786 47.7407C44.0542 47.6967 44.3113 47.6352 44.5714 47.5649C47.9994 46.6065 50.1207 43.3564 49.5106 40.0037C48.8944 36.8122 45.9618 34.4911 42.5368 34.4911Z" fill="url(#paint10_linear_7_2015)"/>
<path d="M14.7346 52.3653C16.0321 55.2579 19.0049 57.1276 22.3091 57.1276C23.0895 57.1276 23.8668 57.0221 24.6224 56.8111C24.9351 56.7261 25.251 56.6148 25.5607 56.4917C27.6045 55.6652 29.1838 54.1413 29.9983 52.2041C30.8158 50.2787 30.791 48.1656 29.9239 46.2578C28.6264 43.3681 25.6474 41.5042 22.3277 41.5042C21.2191 41.5042 20.1352 41.7152 19.104 42.1285C14.9235 43.8136 12.9633 48.406 14.7346 52.3653Z" fill="url(#paint11_linear_7_2015)"/>
<path d="M100.179 57.9013C99.5597 57.576 98.8413 57.4031 98.1011 57.4031C96.4413 57.4031 94.8898 58.2354 94.1497 59.5249C92.9637 61.5529 93.741 64.1085 95.8746 65.228C96.9182 65.7848 98.1445 65.9167 99.281 65.5973C100.402 65.2837 101.343 64.5686 101.935 63.5868C103.099 61.5705 102.313 59.015 100.179 57.9013Z" fill="url(#paint12_linear_7_2015)"/>
<path d="M80.5211 60.4539C81.19 61.591 82.2893 62.4175 83.6147 62.778C84.0761 62.8981 84.5561 62.9597 85.0361 62.9597C85.5378 62.9597 86.0332 62.8923 86.5101 62.7604C88.2257 62.2827 89.5418 61.0254 90.028 59.4018C90.796 56.8023 89.2012 54.0856 86.4792 53.3559C86.0456 53.2386 85.5966 53.1771 85.1414 53.1771C82.8374 53.1771 80.7069 54.66 80.0783 56.7056C79.6881 57.9687 79.846 59.2993 80.5211 60.4539Z" fill="url(#paint13_linear_7_2015)"/>
<path d="M75.2319 57.576C75.396 54.4314 72.8227 51.7381 69.4968 51.5799L69.2119 51.574C66.0904 51.574 63.322 54.0534 63.1671 56.9869C62.9906 60.1316 65.5547 62.8278 68.8806 62.9978L69.1779 63.0036C69.7662 63.0036 70.3453 62.9245 70.8996 62.7692C73.3429 62.0863 75.0833 59.9997 75.2319 57.576Z" fill="url(#paint14_linear_7_2015)"/>
<path d="M50.7989 67.0538C51.2045 67.0538 51.6164 67.0186 52.019 66.9512C52.2853 66.9073 52.5392 66.8516 52.787 66.7783C56.2398 65.8171 58.3672 62.5611 57.7355 59.2084C57.1316 56.0081 54.2052 53.687 50.7803 53.687C50.3715 53.687 49.9566 53.7222 49.5509 53.7896C45.7295 54.4343 43.1686 57.916 43.8437 61.55C44.4537 64.7386 47.3739 67.0538 50.7989 67.0538Z" fill="url(#paint15_linear_7_2015)"/>
<path d="M38.2293 71.441C39.0561 69.498 39.0376 67.3762 38.1736 65.4654C36.8884 62.6285 33.8103 60.7236 30.5123 60.7236C29.413 60.7236 28.3477 60.9316 27.3475 61.339C25.3098 62.1479 23.7398 63.6542 22.913 65.5797C22.08 67.5168 22.1016 69.6474 22.9749 71.5788C24.2786 74.4655 27.2577 76.3323 30.565 76.3323C31.3515 76.3323 32.135 76.2239 32.8968 76.0129C33.2034 75.9279 33.5006 75.8253 33.801 75.7051C35.8325 74.8933 37.4056 73.3782 38.2293 71.441Z" fill="url(#paint16_linear_7_2015)"/>
<path d="M17.4783 77.5456C15.6605 75.1864 12.7341 73.7767 9.64667 73.7767C8.72385 73.7767 7.80722 73.9028 6.92156 74.1519C5.86558 74.4449 4.87154 74.9109 3.9642 75.5351C1.88321 76.9682 0.517563 79.0871 0.118087 81.502C-0.281389 83.9169 0.33176 86.3317 1.84605 88.3011C3.65763 90.6633 6.59021 92.0729 9.68383 92.0729C10.6066 92.0729 11.5202 91.9469 12.4058 91.7007C13.4587 91.4076 14.4528 90.9446 15.3539 90.3233C19.6583 87.3457 20.6121 81.6133 17.4783 77.5456Z" fill="url(#paint17_linear_7_2015)"/>
<path d="M121.428 109.578C121.286 107.986 119.843 106.738 118.149 106.738C118.053 106.738 117.96 106.741 117.864 106.75C116.468 106.861 115.303 107.816 114.969 109.126C114.885 109.452 114.86 109.777 114.888 110.126C115.043 111.705 116.471 112.945 118.143 112.945C118.236 112.945 118.329 112.942 118.425 112.933C119.27 112.869 120.078 112.465 120.648 111.829C121.224 111.187 121.5 110.387 121.428 109.578Z" fill="url(#paint18_linear_7_2015)"/>
<path d="M123.732 106.125C123.568 106.782 123.596 107.465 123.819 108.104C124.454 109.953 126.65 111.02 128.628 110.413C129.545 110.129 130.335 109.466 130.799 108.596C131.264 107.723 131.357 106.729 131.053 105.862C130.746 104.939 130.074 104.194 129.161 103.76C128.625 103.5 128.037 103.365 127.452 103.365C127.052 103.365 126.656 103.429 126.275 103.549C124.987 103.933 124.042 104.898 123.732 106.125Z" fill="url(#paint19_linear_7_2015)"/>
<path d="M132.954 100.399C132.676 101.48 132.858 102.594 133.468 103.541C134.079 104.508 135.045 105.185 136.194 105.457C136.553 105.542 136.921 105.586 137.284 105.586C138.079 105.586 138.86 105.378 139.547 104.983C141.57 103.822 142.282 101.126 141.068 99.212C140.266 97.9694 138.801 97.1928 137.25 97.1928C136.451 97.1928 135.667 97.398 134.983 97.7819C133.955 98.368 133.233 99.297 132.954 100.399Z" fill="url(#paint20_linear_7_2015)"/>
<path d="M146.976 97.395C148.317 97.395 149.593 96.9056 150.565 96.0206C152.532 94.2123 152.585 90.9681 150.677 89.0807C149.705 88.14 148.382 87.6183 146.967 87.6183C145.605 87.6183 144.316 88.1077 143.335 88.9928C142.653 89.6258 142.167 90.4376 141.938 91.3344C141.517 92.9844 142.006 94.693 143.245 95.9062C144.037 96.6801 145.055 97.1746 146.164 97.337C146.574 97.397 146.922 97.6972 146.979 98.1072V97.3981C146.979 97.3964 146.978 97.395 146.976 97.395Z" fill="url(#paint21_linear_7_2015)"/>
<path d="M160.667 83.0025C162.444 80.4059 161.624 76.7778 158.877 75.078C157.902 74.4831 156.771 74.1695 155.613 74.1695C153.548 74.1695 151.649 75.1454 150.538 76.7778C150.166 77.3229 149.893 77.9178 149.729 78.5508C149.129 80.9042 150.169 83.3659 152.312 84.6789C153.297 85.2855 154.43 85.6049 155.591 85.6049C156.022 85.6049 156.462 85.561 156.889 85.476C158.465 85.1507 159.806 84.2715 160.667 83.0025Z" fill="url(#paint22_linear_7_2015)"/>
<path d="M164.389 56.9899C163.615 56.7232 162.807 56.5884 161.989 56.5884C159.029 56.5884 156.353 58.3615 155.337 60.9961C155.245 61.2306 155.173 61.468 155.108 61.7053C154.266 65.0082 156.18 68.3843 159.558 69.5478C160.323 69.8057 161.125 69.9405 161.937 69.9405C164.909 69.9405 167.585 68.1733 168.594 65.5416C169.886 62.0687 168 58.2296 164.389 56.9899Z" fill="url(#paint23_linear_7_2015)"/>
<path d="M106.335 99.8685C106.171 100.51 106.199 101.184 106.416 101.817C106.728 102.735 107.407 103.476 108.314 103.913C108.853 104.171 109.426 104.303 110.023 104.303C110.426 104.303 110.828 104.241 111.219 104.118C112.145 103.837 112.94 103.177 113.405 102.307C113.869 101.442 113.962 100.455 113.662 99.5989C113.349 98.6816 112.68 97.9343 111.767 97.4917C111.225 97.225 110.643 97.0902 110.039 97.0902C109.645 97.0902 109.252 97.1488 108.865 97.2661C107.599 97.6646 106.648 98.6406 106.335 99.8685Z" fill="url(#paint24_linear_7_2015)"/>
<path d="M118.796 99.1739C119.927 99.4348 121.162 99.2618 122.165 98.6874C124.2 97.5181 124.891 94.8688 123.67 92.9023C122.853 91.6538 121.422 90.9007 119.852 90.9007C119.047 90.9007 118.257 91.1117 117.573 91.5044C116.551 92.0905 115.836 93.0137 115.557 94.1068C115.282 95.1941 115.464 96.3107 116.08 97.2456C116.684 98.2156 117.647 98.8955 118.796 99.1739Z" fill="url(#paint25_linear_7_2015)"/>
<path d="M129.564 91.1087C130.923 91.1087 132.205 90.6193 133.168 89.7284C134.113 88.8668 134.667 87.6183 134.689 86.2995C134.713 84.9749 134.202 83.7 133.289 82.8062C132.31 81.8478 130.988 81.3203 129.573 81.3203C128.22 81.3203 126.944 81.8068 125.974 82.6919C125.271 83.3425 124.776 84.166 124.547 85.0628C124.132 86.6981 124.621 88.4037 125.86 89.6288C126.653 90.3961 127.674 90.8895 128.787 91.0512C129.19 91.1098 129.527 91.4179 129.56 91.8238V91.1118C129.56 91.1101 129.562 91.1087 129.564 91.1087Z" fill="url(#paint26_linear_7_2015)"/>
<path d="M143.266 76.7162C144.121 75.4736 144.406 73.9555 144.069 72.4374C143.734 70.9311 142.796 69.6093 141.495 68.8093C140.52 68.2114 139.389 67.8949 138.225 67.8949C136.163 67.8949 134.264 68.8679 133.146 70.5003C132.769 71.0424 132.499 71.6403 132.335 72.2763C131.741 74.6149 132.784 77.0738 134.927 78.3984C135.912 79.0021 137.042 79.3216 138.197 79.3216C138.625 79.3216 139.058 79.2776 139.482 79.1926C141.059 78.8673 142.399 77.9881 143.266 76.7162Z" fill="url(#paint27_linear_7_2015)"/>
<path d="M142.173 63.2645C142.935 63.5224 143.734 63.6542 144.545 63.6542C147.521 63.6542 150.2 61.887 151.216 59.2553C152.554 55.8118 150.658 51.9726 146.998 50.6948C146.218 50.4252 145.403 50.2904 144.583 50.2904C143.548 50.2904 142.545 50.5043 141.597 50.9234C139.891 51.6795 138.6 53.0188 137.959 54.6981C137.863 54.9472 137.785 55.1905 137.72 55.4366C136.884 58.7249 138.801 62.0893 142.173 63.2645Z" fill="url(#paint28_linear_7_2015)"/>
<path d="M146.239 44.0862C146.577 44.1272 146.911 44.1448 147.246 44.1448C151.402 44.1448 154.919 41.1936 155.427 37.2782C155.975 33.0112 152.755 29.1075 148.243 28.58C147.902 28.539 147.562 28.5214 147.227 28.5214C143.412 28.5214 140.126 30.9626 139.235 34.4618C139.157 34.7608 139.098 35.0744 139.058 35.3909C138.792 37.4775 139.399 39.5319 140.761 41.1731C142.115 42.8055 144.059 43.84 146.239 44.0862Z" fill="url(#paint29_linear_7_2015)"/>
<path d="M102.446 93.2217C102.731 92.1257 102.56 90.9856 101.981 90.0918C101.182 88.8345 99.7269 88.0579 98.1724 88.0579C97.3734 88.0579 96.5868 88.266 95.8994 88.6587C94.862 89.2389 94.1404 90.165 93.8617 91.264C93.5861 92.3396 93.7688 93.4708 94.3758 94.4438C95.184 95.6982 96.6054 96.4513 98.1755 96.4513C98.9806 96.4513 99.7703 96.2432 100.458 95.8505C101.433 95.2908 102.158 94.3354 102.446 93.2217Z" fill="url(#paint30_linear_7_2015)"/>
<path d="M107.887 88.2513C109.24 88.2513 110.509 87.7648 111.466 86.8827C113.451 85.0803 113.51 81.8478 111.603 79.9605C110.64 79.0168 109.345 78.4775 107.949 78.4512C106.53 78.4512 105.251 78.9377 104.276 79.8257C103.576 80.4792 103.077 81.3056 102.845 82.2054C102.427 83.8495 102.919 85.558 104.161 86.7713C105.143 87.7238 106.468 88.2513 107.887 88.2513Z" fill="url(#paint31_linear_7_2015)"/>
<path d="M113.231 75.5586C114.204 76.1535 115.337 76.47 116.499 76.47C118.564 76.47 120.468 75.4912 121.586 73.8559C123.333 71.3003 122.5 67.6136 119.806 65.9636C118.827 65.3599 117.694 65.0404 116.529 65.0404C114.47 65.0404 112.572 66.0134 111.448 67.6429C111.073 68.1909 110.804 68.7888 110.646 69.4101C110.048 71.7575 111.085 74.2281 113.231 75.5586Z" fill="url(#paint32_linear_7_2015)"/>
<path d="M125.281 47.8491C124.513 47.5854 123.711 47.4535 122.896 47.4535C119.936 47.4535 117.266 49.2178 116.251 51.8466C116.158 52.084 116.084 52.3184 116.025 52.5587C115.179 55.8733 117.093 59.2436 120.475 60.4041C121.249 60.6679 122.057 60.8027 122.872 60.8027C125.841 60.8027 128.514 59.0355 129.523 56.4038C130.852 52.9544 128.944 49.1152 125.281 47.8491Z" fill="url(#paint33_linear_7_2015)"/>
<path d="M126.541 25.7285C126.204 25.6904 125.869 25.6728 125.541 25.6728C121.716 25.6728 118.418 28.1287 117.524 31.6455C117.449 31.9385 117.39 32.2316 117.353 32.5364C117.084 34.6142 117.685 36.6599 119.044 38.301C120.407 39.951 122.361 40.9972 124.541 41.2434C124.86 41.2786 125.182 41.2991 125.498 41.2991C129.638 41.2991 133.249 38.2834 133.722 34.4355C134.001 32.3606 133.41 30.3179 132.059 28.6796C130.706 27.0267 128.746 25.9805 126.541 25.7285Z" fill="url(#paint34_linear_7_2015)"/>
<path d="M122.8 18.2934C123.141 18.2934 123.488 18.2758 123.832 18.2406C127.891 17.8274 131.261 15.0345 132.214 11.2891C132.474 10.275 132.543 9.22587 132.428 8.17376C131.905 3.51399 127.777 0.00012207 122.828 0.00012207C122.488 0.00012207 122.147 0.0177061 121.803 0.0528741C117.74 0.454376 114.368 3.25023 113.408 7.00735C113.151 8.02722 113.08 9.07347 113.197 10.1139C113.73 14.7736 117.858 18.2934 122.8 18.2934Z" fill="url(#paint35_linear_7_2015)"/>
<path d="M46.1848 82.3519C45.9277 82.1233 45.6428 81.9387 45.3115 81.7892C44.8873 81.6046 44.4258 81.5079 43.9459 81.5079C42.67 81.5079 41.5025 82.2054 40.9699 83.2838C40.6076 84.0106 40.5704 84.8752 40.8708 85.6606C41.1712 86.4519 41.7658 87.0791 42.5461 87.4249C42.9797 87.6183 43.4442 87.715 43.9242 87.715C45.2 87.715 46.3737 87.0117 46.9125 85.9185C47.5102 84.714 47.2191 83.2809 46.1848 82.3519Z" fill="url(#paint36_linear_7_2015)"/>
<path d="M42.701 90.1211C42.4315 90.0654 42.1621 90.039 41.8958 90.039C40.1152 90.039 38.5514 91.2435 38.1767 92.9052C37.9785 93.7961 38.1922 94.7808 38.7558 95.5956C39.3225 96.4103 40.1864 96.9847 41.1309 97.1664C42.1497 97.3803 43.1469 97.1928 44.0047 96.6682C44.8625 96.1407 45.4416 95.3347 45.6366 94.4057C45.9277 93.1602 45.519 91.9059 44.5497 91.0325C44.0295 90.5695 43.3884 90.25 42.701 90.1211Z" fill="url(#paint37_linear_7_2015)"/>
<path d="M42.1528 109.417C42.1881 109.01 42.5265 108.702 42.9286 108.631C45.0189 108.262 46.596 106.502 46.5626 104.429C46.5378 103.292 46.0485 102.236 45.1814 101.457C44.3608 100.715 43.2893 100.308 42.1683 100.308C40.8615 100.326 39.756 100.777 38.9323 101.58C38.1054 102.389 37.6657 103.453 37.6905 104.569C37.7377 106.545 39.4178 108.3 41.441 108.641C41.8304 108.707 42.1528 109.022 42.1528 109.417Z" fill="url(#paint38_linear_7_2015)"/>
<path d="M45.519 121.772C45.9092 121.772 46.2993 121.728 46.6771 121.64C49.4208 120.975 51.1085 118.294 50.4304 115.668C50.1888 114.791 49.6902 113.988 48.9842 113.35C48.0056 112.473 46.736 111.99 45.4075 111.99C44.9832 111.99 44.559 112.04 44.144 112.136C42.8093 112.453 41.679 113.247 40.9637 114.372C40.2546 115.489 40.0471 116.808 40.3784 118.074C40.9451 120.181 43.1531 121.772 45.519 121.772Z" fill="url(#paint39_linear_7_2015)"/>
<path d="M55.3882 135.362C58.3456 133.92 59.5223 130.473 58.0018 127.681C57.6891 127.1 57.2803 126.579 56.7848 126.133C55.6576 125.116 54.1774 124.559 52.6166 124.559C51.669 124.559 50.7245 124.773 49.8853 125.181C48.4423 125.881 47.3677 127.074 46.8691 128.539C46.3768 129.99 46.5099 131.526 47.2438 132.868C48.2565 134.746 50.4056 135.957 52.7188 135.957C53.6664 135.96 54.5645 135.757 55.3882 135.362Z" fill="url(#paint40_linear_7_2015)"/>
<path d="M70.0449 139.503C69.8777 139.309 69.695 139.131 69.5061 138.958C68.19 137.777 66.462 137.123 64.6443 137.123C62.9906 137.123 61.3772 137.68 60.1045 138.688C57.144 141.065 56.76 145.285 59.256 148.098C60.6216 149.605 62.6066 150.472 64.6969 150.472C66.3413 150.472 67.9361 149.924 69.1871 148.925C72.1631 146.554 72.5471 142.328 70.0449 139.503Z" fill="url(#paint41_linear_7_2015)"/>
<path d="M57.1533 78.9963C56.8932 78.9435 56.6269 78.9201 56.3606 78.9201C55.6266 78.9201 54.9082 79.1223 54.2827 79.5062C53.4311 80.0337 52.852 80.8426 52.6476 81.7833C52.4401 82.6831 52.6445 83.6648 53.2081 84.4825C53.7655 85.2943 54.6233 85.8658 55.5585 86.0445C56.5742 86.2555 57.5776 86.068 58.4354 85.5463C59.287 85.0305 59.8753 84.2246 60.0952 83.2809C60.3646 82.0412 59.9466 80.7752 58.9804 79.9019C58.4725 79.4505 57.8408 79.134 57.1533 78.9963Z" fill="url(#paint42_linear_7_2015)"/>
<path d="M56.6424 98.3123C56.6633 97.9067 56.9946 97.5924 57.394 97.519C59.4865 97.1348 61.0617 95.3657 61.0087 93.295C60.9839 92.1667 60.4947 91.1204 59.6369 90.3438C58.8162 89.6082 57.7572 89.2009 56.6455 89.2009L56.4875 89.2038C55.3139 89.2155 54.2114 89.6639 53.3846 90.4669C52.564 91.2816 52.1212 92.3513 52.1428 93.4767C52.1874 95.4841 53.8584 97.2121 55.93 97.541C56.3201 97.6029 56.6424 97.9174 56.6424 98.3123Z" fill="url(#paint43_linear_7_2015)"/>
<path d="M55.4099 103.271C54.7069 104.393 54.5025 105.706 54.837 106.964C55.3913 109.074 57.59 110.662 59.9496 110.662C60.3429 110.662 60.7362 110.618 61.114 110.527C63.8763 109.871 65.564 107.207 64.8734 104.59C64.6288 103.687 64.1271 102.872 63.418 102.234C62.4487 101.363 61.179 100.883 59.8444 100.883C59.4232 100.883 58.999 100.932 58.584 101.029C57.2586 101.348 56.1252 102.146 55.4099 103.271Z" fill="url(#paint44_linear_7_2015)"/>
<path d="M61.3277 117.414C60.8353 118.865 60.9654 120.407 61.6993 121.752C62.7057 123.633 64.8548 124.847 67.1712 124.847C68.1002 124.847 69.0168 124.641 69.8189 124.255C72.7793 122.824 73.9592 119.375 72.448 116.567C72.1383 115.987 71.7264 115.466 71.2279 115.011C70.1131 114.009 68.639 113.455 67.0783 113.455C66.1276 113.455 65.1769 113.669 64.3315 114.076C62.8884 114.768 61.8232 115.955 61.3277 117.414Z" fill="url(#paint45_linear_7_2015)"/>
<path d="M84.4973 128.407C84.3177 128.202 84.1319 128.018 83.9368 127.839C82.6331 126.667 80.9144 126.016 79.0997 126.016C77.4461 126.016 75.8296 126.57 74.5537 127.578C71.5964 129.955 71.2124 134.181 73.7021 136.994C75.0399 138.512 77.0032 139.383 79.0842 139.383C80.741 139.383 82.3605 138.829 83.6395 137.818C85.0857 136.666 85.9713 135.051 86.1324 133.272C86.2934 131.499 85.7112 129.773 84.4973 128.407Z" fill="url(#paint46_linear_7_2015)"/>
<path d="M102.378 139.573C102.142 139.362 101.885 139.157 101.616 138.964C100.164 137.932 98.448 137.387 96.6581 137.387C96.2648 137.387 95.8684 137.413 95.472 137.469C93.3043 137.762 91.3844 138.841 90.0683 140.502C88.7522 142.158 88.1917 144.204 88.492 146.264C88.7924 148.336 89.9351 150.17 91.7033 151.431C93.1402 152.456 94.8527 152.999 96.655 152.999C99.2748 152.999 101.681 151.867 103.254 149.898C105.775 146.733 105.4 142.293 102.378 139.573Z" fill="url(#paint47_linear_7_2015)"/>
<path d="M70.0016 81.9416C70.0586 81.5315 70.408 81.2323 70.8161 81.1622C72.9189 80.801 74.4965 79.0444 74.4547 76.9624C74.4423 75.8223 73.9592 74.7673 73.0921 73.9878C72.2529 73.2346 71.1443 72.8184 69.9644 72.8184C67.4963 72.8712 65.5516 74.7937 65.5981 77.1001C65.6341 79.0731 67.2927 80.8294 69.2956 81.1721C69.6817 81.2381 70.0016 81.5499 70.0016 81.9416Z" fill="url(#paint48_linear_7_2015)"/>
<path d="M68.2922 90.6046C68.8434 92.7177 71.0421 94.3061 73.408 94.3061C73.7981 94.3061 74.1852 94.2621 74.5599 94.1771C75.907 93.8606 77.0466 93.0664 77.7619 91.941C78.468 90.8244 78.6755 89.5086 78.3441 88.2396C78.0964 87.3369 77.5916 86.5193 76.8794 85.8775C75.9101 85.0012 74.6435 84.5235 73.3181 84.5235C72.8908 84.5235 72.4635 84.5733 72.0485 84.673C69.2862 85.3441 67.5985 88.0081 68.2922 90.6046Z" fill="url(#paint49_linear_7_2015)"/>
<path d="M75.1545 105.41C76.164 107.28 78.3101 108.485 80.6202 108.485C81.5492 108.485 82.4659 108.28 83.2679 107.893C86.2315 106.468 87.4175 103.019 85.9094 100.206C85.5935 99.6253 85.1848 99.1065 84.6924 98.6611C83.5683 97.65 82.085 97.0902 80.518 97.0902C79.5704 97.0902 78.6228 97.3042 77.7743 97.7086C74.8139 99.1505 73.6371 102.606 75.1545 105.41Z" fill="url(#paint50_linear_7_2015)"/>
<path d="M87.1481 120.647C88.492 122.156 90.4522 123.024 92.5301 123.024C94.1962 123.024 95.8189 122.464 97.1009 121.444C100.064 119.079 100.452 114.862 97.9587 112.045C97.7884 111.858 97.6087 111.676 97.4199 111.506C96.0976 110.313 94.3696 109.657 92.5549 109.657C90.8982 109.657 89.2848 110.214 88.012 111.228C85.0392 113.605 84.6521 117.831 87.1481 120.647Z" fill="url(#paint51_linear_7_2015)"/>
<path d="M116.718 133.536C119.233 130.362 118.843 125.91 115.814 123.185C115.582 122.977 115.343 122.78 115.083 122.599C113.637 121.567 111.928 121.022 110.138 121.022C109.748 121.022 109.354 121.048 108.964 121.101C106.772 121.391 104.842 122.473 103.523 124.137C102.21 125.799 101.665 127.871 101.987 129.969C102.306 132.041 103.433 133.853 105.161 135.069C106.611 136.109 108.323 136.657 110.116 136.657C110.497 136.657 110.878 136.634 111.259 136.584C113.445 136.303 115.384 135.218 116.718 133.536Z" fill="url(#paint52_linear_7_2015)"/>
<path d="M140.418 132.138C139.619 131.42 138.699 130.837 137.68 130.406C136.441 129.887 135.128 129.627 133.781 129.627C129.948 129.627 126.473 131.76 124.925 135.06C123.271 138.597 124.144 142.756 127.095 145.408C127.888 146.12 128.814 146.704 129.845 147.143C131.081 147.662 132.394 147.926 133.741 147.926C137.565 147.926 141.037 145.792 142.588 142.489C144.248 138.961 143.378 134.799 140.418 132.138Z" fill="url(#paint53_linear_7_2015)"/>
<defs>
<linearGradient id="paint0_linear_7_2015" x1="-0.000976562" y1="76.4993" x2="169.001" y2="76.4993" gradientUnits="userSpaceOnUse">
<stop stop-color="#153BE6"/>
<stop offset="1" stop-color="#6C0ACF"/>
</linearGradient>
<linearGradient id="paint1_linear_7_2015" x1="-0.000976562" y1="76.4993" x2="169.001" y2="76.4993" gradientUnits="userSpaceOnUse">
<stop stop-color="#153BE6"/>
<stop offset="1" stop-color="#6C0ACF"/>
</linearGradient>
<linearGradient id="paint2_linear_7_2015" x1="-0.000976562" y1="76.4993" x2="169.001" y2="76.4993" gradientUnits="userSpaceOnUse">
<stop stop-color="#153BE6"/>
<stop offset="1" stop-color="#6C0ACF"/>
</linearGradient>
<linearGradient id="paint3_linear_7_2015" x1="-0.000976562" y1="76.4993" x2="169.001" y2="76.4993" gradientUnits="userSpaceOnUse">
<stop stop-color="#153BE6"/>
<stop offset="1" stop-color="#6C0ACF"/>
</linearGradient>
<linearGradient id="paint4_linear_7_2015" x1="-0.000976562" y1="76.4993" x2="169.001" y2="76.4993" gradientUnits="userSpaceOnUse">
<stop stop-color="#153BE6"/>
<stop offset="1" stop-color="#6C0ACF"/>
</linearGradient>
<linearGradient id="paint5_linear_7_2015" x1="-0.000976562" y1="76.4993" x2="169.001" y2="76.4993" gradientUnits="userSpaceOnUse">
<stop stop-color="#153BE6"/>
<stop offset="1" stop-color="#6C0ACF"/>
</linearGradient>
<linearGradient id="paint6_linear_7_2015" x1="-0.000976562" y1="76.4993" x2="169.001" y2="76.4993" gradientUnits="userSpaceOnUse">
<stop stop-color="#153BE6"/>
<stop offset="1" stop-color="#6C0ACF"/>
</linearGradient>
<linearGradient id="paint7_linear_7_2015" x1="-0.000976562" y1="76.4993" x2="169.001" y2="76.4993" gradientUnits="userSpaceOnUse">
<stop stop-color="#153BE6"/>
<stop offset="1" stop-color="#6C0ACF"/>
</linearGradient>
<linearGradient id="paint8_linear_7_2015" x1="-0.000976562" y1="76.4993" x2="169.001" y2="76.4993" gradientUnits="userSpaceOnUse">
<stop stop-color="#153BE6"/>
<stop offset="1" stop-color="#6C0ACF"/>
</linearGradient>
<linearGradient id="paint9_linear_7_2015" x1="-0.000976562" y1="76.4993" x2="169.001" y2="76.4993" gradientUnits="userSpaceOnUse">
<stop stop-color="#153BE6"/>
<stop offset="1" stop-color="#6C0ACF"/>
</linearGradient>
<linearGradient id="paint10_linear_7_2015" x1="-0.000976562" y1="76.4993" x2="169.001" y2="76.4993" gradientUnits="userSpaceOnUse">
<stop stop-color="#153BE6"/>
<stop offset="1" stop-color="#6C0ACF"/>
</linearGradient>
<linearGradient id="paint11_linear_7_2015" x1="-0.000976562" y1="76.4993" x2="169.001" y2="76.4993" gradientUnits="userSpaceOnUse">
<stop stop-color="#153BE6"/>
<stop offset="1" stop-color="#6C0ACF"/>
</linearGradient>
<linearGradient id="paint12_linear_7_2015" x1="-0.000976562" y1="76.4993" x2="169.001" y2="76.4993" gradientUnits="userSpaceOnUse">
<stop stop-color="#153BE6"/>
<stop offset="1" stop-color="#6C0ACF"/>
</linearGradient>
<linearGradient id="paint13_linear_7_2015" x1="-0.000976562" y1="76.4993" x2="169.001" y2="76.4993" gradientUnits="userSpaceOnUse">
<stop stop-color="#153BE6"/>
<stop offset="1" stop-color="#6C0ACF"/>
</linearGradient>
<linearGradient id="paint14_linear_7_2015" x1="-0.000976562" y1="76.4993" x2="169.001" y2="76.4993" gradientUnits="userSpaceOnUse">
<stop stop-color="#153BE6"/>
<stop offset="1" stop-color="#6C0ACF"/>
</linearGradient>
<linearGradient id="paint15_linear_7_2015" x1="-0.000976562" y1="76.4993" x2="169.001" y2="76.4993" gradientUnits="userSpaceOnUse">
<stop stop-color="#153BE6"/>
<stop offset="1" stop-color="#6C0ACF"/>
</linearGradient>
<linearGradient id="paint16_linear_7_2015" x1="-0.000976562" y1="76.4993" x2="169.001" y2="76.4993" gradientUnits="userSpaceOnUse">
<stop stop-color="#153BE6"/>
<stop offset="1" stop-color="#6C0ACF"/>
</linearGradient>
<linearGradient id="paint17_linear_7_2015" x1="-0.000976562" y1="76.4993" x2="169.001" y2="76.4993" gradientUnits="userSpaceOnUse">
<stop stop-color="#153BE6"/>
<stop offset="1" stop-color="#6C0ACF"/>
</linearGradient>
<linearGradient id="paint18_linear_7_2015" x1="-0.000976562" y1="76.4993" x2="169.001" y2="76.4993" gradientUnits="userSpaceOnUse">
<stop stop-color="#153BE6"/>
<stop offset="1" stop-color="#6C0ACF"/>
</linearGradient>
<linearGradient id="paint19_linear_7_2015" x1="-0.000976562" y1="76.4993" x2="169.001" y2="76.4993" gradientUnits="userSpaceOnUse">
<stop stop-color="#153BE6"/>
<stop offset="1" stop-color="#6C0ACF"/>
</linearGradient>
<linearGradient id="paint20_linear_7_2015" x1="-0.000976562" y1="76.4993" x2="169.001" y2="76.4993" gradientUnits="userSpaceOnUse">
<stop stop-color="#153BE6"/>
<stop offset="1" stop-color="#6C0ACF"/>
</linearGradient>
<linearGradient id="paint21_linear_7_2015" x1="-0.000976562" y1="76.4993" x2="169.001" y2="76.4993" gradientUnits="userSpaceOnUse">
<stop stop-color="#153BE6"/>
<stop offset="1" stop-color="#6C0ACF"/>
</linearGradient>
<linearGradient id="paint22_linear_7_2015" x1="-0.000976562" y1="76.4993" x2="169.001" y2="76.4993" gradientUnits="userSpaceOnUse">
<stop stop-color="#153BE6"/>
<stop offset="1" stop-color="#6C0ACF"/>
</linearGradient>
<linearGradient id="paint23_linear_7_2015" x1="-0.000976562" y1="76.4993" x2="169.001" y2="76.4993" gradientUnits="userSpaceOnUse">
<stop stop-color="#153BE6"/>
<stop offset="1" stop-color="#6C0ACF"/>
</linearGradient>
<linearGradient id="paint24_linear_7_2015" x1="-0.000976562" y1="76.4993" x2="169.001" y2="76.4993" gradientUnits="userSpaceOnUse">
<stop stop-color="#153BE6"/>
<stop offset="1" stop-color="#6C0ACF"/>
</linearGradient>
<linearGradient id="paint25_linear_7_2015" x1="-0.000976562" y1="76.4993" x2="169.001" y2="76.4993" gradientUnits="userSpaceOnUse">
<stop stop-color="#153BE6"/>
<stop offset="1" stop-color="#6C0ACF"/>
</linearGradient>
<linearGradient id="paint26_linear_7_2015" x1="-0.000976562" y1="76.4993" x2="169.001" y2="76.4993" gradientUnits="userSpaceOnUse">
<stop stop-color="#153BE6"/>
<stop offset="1" stop-color="#6C0ACF"/>
</linearGradient>
<linearGradient id="paint27_linear_7_2015" x1="-0.000976562" y1="76.4993" x2="169.001" y2="76.4993" gradientUnits="userSpaceOnUse">
<stop stop-color="#153BE6"/>
<stop offset="1" stop-color="#6C0ACF"/>
</linearGradient>
<linearGradient id="paint28_linear_7_2015" x1="-0.000976562" y1="76.4993" x2="169.001" y2="76.4993" gradientUnits="userSpaceOnUse">
<stop stop-color="#153BE6"/>
<stop offset="1" stop-color="#6C0ACF"/>
</linearGradient>
<linearGradient id="paint29_linear_7_2015" x1="-0.000976562" y1="76.4993" x2="169.001" y2="76.4993" gradientUnits="userSpaceOnUse">
<stop stop-color="#153BE6"/>
<stop offset="1" stop-color="#6C0ACF"/>
</linearGradient>
<linearGradient id="paint30_linear_7_2015" x1="-0.000976562" y1="76.4993" x2="169.001" y2="76.4993" gradientUnits="userSpaceOnUse">
<stop stop-color="#153BE6"/>
<stop offset="1" stop-color="#6C0ACF"/>
</linearGradient>
<linearGradient id="paint31_linear_7_2015" x1="-0.000976562" y1="76.4993" x2="169.001" y2="76.4993" gradientUnits="userSpaceOnUse">
<stop stop-color="#153BE6"/>
<stop offset="1" stop-color="#6C0ACF"/>
</linearGradient>
<linearGradient id="paint32_linear_7_2015" x1="-0.000976562" y1="76.4993" x2="169.001" y2="76.4993" gradientUnits="userSpaceOnUse">
<stop stop-color="#153BE6"/>
<stop offset="1" stop-color="#6C0ACF"/>
</linearGradient>
<linearGradient id="paint33_linear_7_2015" x1="-0.000976562" y1="76.4993" x2="169.001" y2="76.4993" gradientUnits="userSpaceOnUse">
<stop stop-color="#153BE6"/>
<stop offset="1" stop-color="#6C0ACF"/>
</linearGradient>
<linearGradient id="paint34_linear_7_2015" x1="-0.000976562" y1="76.4993" x2="169.001" y2="76.4993" gradientUnits="userSpaceOnUse">
<stop stop-color="#153BE6"/>
<stop offset="1" stop-color="#6C0ACF"/>
</linearGradient>
<linearGradient id="paint35_linear_7_2015" x1="-0.000976562" y1="76.4993" x2="169.001" y2="76.4993" gradientUnits="userSpaceOnUse">
<stop stop-color="#153BE6"/>
<stop offset="1" stop-color="#6C0ACF"/>
</linearGradient>
<linearGradient id="paint36_linear_7_2015" x1="-0.000976562" y1="76.4993" x2="169.001" y2="76.4993" gradientUnits="userSpaceOnUse">
<stop stop-color="#153BE6"/>
<stop offset="1" stop-color="#6C0ACF"/>
</linearGradient>
<linearGradient id="paint37_linear_7_2015" x1="-0.000976562" y1="76.4993" x2="169.001" y2="76.4993" gradientUnits="userSpaceOnUse">
<stop stop-color="#153BE6"/>
<stop offset="1" stop-color="#6C0ACF"/>
</linearGradient>
<linearGradient id="paint38_linear_7_2015" x1="-0.000976562" y1="76.4993" x2="169.001" y2="76.4993" gradientUnits="userSpaceOnUse">
<stop stop-color="#153BE6"/>
<stop offset="1" stop-color="#6C0ACF"/>
</linearGradient>
<linearGradient id="paint39_linear_7_2015" x1="-0.000976562" y1="76.4993" x2="169.001" y2="76.4993" gradientUnits="userSpaceOnUse">
<stop stop-color="#153BE6"/>
<stop offset="1" stop-color="#6C0ACF"/>
</linearGradient>
<linearGradient id="paint40_linear_7_2015" x1="-0.000976562" y1="76.4993" x2="169.001" y2="76.4993" gradientUnits="userSpaceOnUse">
<stop stop-color="#153BE6"/>
<stop offset="1" stop-color="#6C0ACF"/>
</linearGradient>
<linearGradient id="paint41_linear_7_2015" x1="-0.000976562" y1="76.4993" x2="169.001" y2="76.4993" gradientUnits="userSpaceOnUse">
<stop stop-color="#153BE6"/>
<stop offset="1" stop-color="#6C0ACF"/>
</linearGradient>
<linearGradient id="paint42_linear_7_2015" x1="-0.000976562" y1="76.4993" x2="169.001" y2="76.4993" gradientUnits="userSpaceOnUse">
<stop stop-color="#153BE6"/>
<stop offset="1" stop-color="#6C0ACF"/>
</linearGradient>
<linearGradient id="paint43_linear_7_2015" x1="-0.000976562" y1="76.4993" x2="169.001" y2="76.4993" gradientUnits="userSpaceOnUse">
<stop stop-color="#153BE6"/>
<stop offset="1" stop-color="#6C0ACF"/>
</linearGradient>
<linearGradient id="paint44_linear_7_2015" x1="-0.000976562" y1="76.4993" x2="169.001" y2="76.4993" gradientUnits="userSpaceOnUse">
<stop stop-color="#153BE6"/>
<stop offset="1" stop-color="#6C0ACF"/>
</linearGradient>
<linearGradient id="paint45_linear_7_2015" x1="-0.000976562" y1="76.4993" x2="169.001" y2="76.4993" gradientUnits="userSpaceOnUse">
<stop stop-color="#153BE6"/>
<stop offset="1" stop-color="#6C0ACF"/>
</linearGradient>
<linearGradient id="paint46_linear_7_2015" x1="-0.000976562" y1="76.4993" x2="169.001" y2="76.4993" gradientUnits="userSpaceOnUse">
<stop stop-color="#153BE6"/>
<stop offset="1" stop-color="#6C0ACF"/>
</linearGradient>
<linearGradient id="paint47_linear_7_2015" x1="-0.000976562" y1="76.4993" x2="169.001" y2="76.4993" gradientUnits="userSpaceOnUse">
<stop stop-color="#153BE6"/>
<stop offset="1" stop-color="#6C0ACF"/>
</linearGradient>
<linearGradient id="paint48_linear_7_2015" x1="-0.000976562" y1="76.4993" x2="169.001" y2="76.4993" gradientUnits="userSpaceOnUse">
<stop stop-color="#153BE6"/>
<stop offset="1" stop-color="#6C0ACF"/>
</linearGradient>
<linearGradient id="paint49_linear_7_2015" x1="-0.000976562" y1="76.4993" x2="169.001" y2="76.4993" gradientUnits="userSpaceOnUse">
<stop stop-color="#153BE6"/>
<stop offset="1" stop-color="#6C0ACF"/>
</linearGradient>
<linearGradient id="paint50_linear_7_2015" x1="-0.000976562" y1="76.4993" x2="169.001" y2="76.4993" gradientUnits="userSpaceOnUse">
<stop stop-color="#153BE6"/>
<stop offset="1" stop-color="#6C0ACF"/>
</linearGradient>
<linearGradient id="paint51_linear_7_2015" x1="-0.000976562" y1="76.4993" x2="169.001" y2="76.4993" gradientUnits="userSpaceOnUse">
<stop stop-color="#153BE6"/>
<stop offset="1" stop-color="#6C0ACF"/>
</linearGradient>
<linearGradient id="paint52_linear_7_2015" x1="-0.000976562" y1="76.4993" x2="169.001" y2="76.4993" gradientUnits="userSpaceOnUse">
<stop stop-color="#153BE6"/>
<stop offset="1" stop-color="#6C0ACF"/>
</linearGradient>
<linearGradient id="paint53_linear_7_2015" x1="-0.000976562" y1="76.4993" x2="169.001" y2="76.4993" gradientUnits="userSpaceOnUse">
<stop stop-color="#153BE6"/>
<stop offset="1" stop-color="#6C0ACF"/>
</linearGradient>
</defs>
</svg>
