<svg width="33" height="29" viewBox="0 0 33 29" fill="none" xmlns="http://www.w3.org/2000/svg">
<path d="M19.8112 7.23695C19.9642 7.4397 20.2556 7.53303 20.5187 7.46137C20.5846 7.44359 20.6469 7.41582 20.7043 7.37971C20.9915 7.19362 21.0623 6.82699 20.8621 6.56369C20.7436 6.40704 20.5447 6.31316 20.3294 6.31316C20.1982 6.31316 20.0736 6.34872 19.969 6.41538C19.6788 6.60146 19.608 6.97031 19.8112 7.23695Z" fill="white"/>
<path d="M18.1732 5.76656C18.1841 5.94987 18.2711 6.11596 18.4175 6.23373C18.6104 6.39593 18.8788 6.45148 19.1274 6.38482C19.2604 6.34816 19.3795 6.27872 19.4708 6.18429C19.6044 6.04819 19.6716 5.87377 19.6613 5.69101C19.6504 5.50825 19.5627 5.3405 19.4146 5.21773C19.2846 5.11052 19.1098 5.05164 18.923 5.05164C18.7041 5.05164 18.5003 5.13219 18.3643 5.27273C18.23 5.40771 18.1629 5.58213 18.1732 5.76656Z" fill="white"/>
<path d="M16.5369 5.42826C16.6663 5.49381 16.8115 5.52825 16.9566 5.52825C17.0394 5.52825 17.1223 5.51714 17.2027 5.49548C17.4228 5.43604 17.6048 5.30161 17.7136 5.11774C17.8267 4.93165 17.8539 4.71668 17.7904 4.51281C17.7263 4.30783 17.58 4.13841 17.3774 4.0362C17.2583 3.97621 17.1192 3.94454 16.9759 3.94454C16.6512 3.94454 16.3453 4.10286 16.1971 4.34783C15.9697 4.73112 16.1215 5.21606 16.5369 5.42826Z" fill="white"/>
<path d="M14.1515 4.96332C14.3281 5.00831 14.5252 5.0072 14.7066 4.95887C15.0422 4.86722 15.2998 4.62947 15.3959 4.32228C15.4691 4.08508 15.4376 3.834 15.307 3.6168C15.1758 3.40016 14.9611 3.24296 14.7017 3.17408C14.6195 3.15297 14.533 3.14186 14.4454 3.14186C13.9931 3.14186 13.5746 3.4246 13.4507 3.81456C13.3013 4.30339 13.6157 4.81944 14.1515 4.96332Z" fill="white"/>
<path d="M11.2654 5.00164C11.4008 5.00831 11.5326 4.99331 11.6608 4.95887C12.1397 4.82889 12.479 4.43449 12.5037 3.97732C12.5207 3.68624 12.4124 3.40738 12.1984 3.19074C11.9874 2.97688 11.6995 2.85189 11.3887 2.83856L11.3307 2.83689C10.7127 2.83689 10.1818 3.29906 10.1473 3.86733C10.1165 4.46337 10.6178 4.9722 11.2654 5.00164Z" fill="white"/>
<path d="M6.37718 4.72557C6.49448 5.33105 7.0659 5.771 7.73649 5.771C7.8163 5.771 7.89733 5.76434 7.97715 5.75156C8.02734 5.74378 8.07752 5.73267 8.1259 5.7199C8.7983 5.53714 9.21492 4.92054 9.09338 4.28506C8.97365 3.68124 8.40224 3.24185 7.73467 3.24185C7.65486 3.24185 7.57443 3.24851 7.49522 3.26129C6.74784 3.39016 6.24536 4.04675 6.37718 4.72557Z" fill="white"/>
<path d="M20.0465 9.48335C20.1795 9.34781 20.2466 9.17228 20.2351 8.98952C20.2242 8.80676 20.1366 8.64012 19.9884 8.51957C19.8566 8.40959 19.6819 8.34959 19.4938 8.34959C19.2767 8.34959 19.076 8.42903 18.9423 8.5679C18.8081 8.70344 18.7404 8.87787 18.7507 9.06173C18.7597 9.24338 18.8456 9.41058 18.9937 9.5339C19.1322 9.64667 19.3094 9.70944 19.4926 9.70944C19.5645 9.70944 19.6365 9.7 19.706 9.68055C19.8379 9.64556 19.9552 9.57723 20.0465 9.48335Z" fill="white"/>
<path d="M18.3661 7.81077C18.3008 7.60579 18.1532 7.43581 17.9501 7.33304C17.8297 7.27249 17.6913 7.24028 17.548 7.24028C17.2232 7.24028 16.9251 7.39637 16.7697 7.64745C16.5442 8.03296 16.6984 8.51846 17.115 8.72733C17.2444 8.79232 17.3883 8.82676 17.5316 8.82676C17.6139 8.82676 17.6967 8.81565 17.7771 8.79399C17.9984 8.73399 18.1792 8.59956 18.2869 8.41514C18.4011 8.2285 18.429 8.01519 18.3661 7.81077Z" fill="white"/>
<path d="M15.971 7.61801C16.0429 7.38137 16.0109 7.13029 15.8797 6.91198C15.7478 6.69645 15.5332 6.54036 15.275 6.47314C15.1915 6.45092 15.1045 6.44037 15.0162 6.44037C14.5639 6.44037 14.1473 6.722 14.0263 7.11085C13.8733 7.6019 14.1847 8.11684 14.7199 8.25794C14.9031 8.30515 15.1002 8.3046 15.2828 8.25516C15.6166 8.16406 15.873 7.92575 15.971 7.61801Z" fill="white"/>
<path d="M13.0782 7.27416C13.0951 6.98475 12.9875 6.70645 12.7752 6.49092C12.5636 6.2765 12.2758 6.15096 11.9638 6.13763C11.9426 6.13651 11.9227 6.13596 11.9027 6.13596C11.2962 6.13596 10.7562 6.6059 10.7242 7.16195C10.6909 7.75744 11.1922 8.26738 11.841 8.29849C11.864 8.2996 11.8864 8.30015 11.9081 8.30015C12.0194 8.30015 12.1301 8.28516 12.2371 8.25627C12.713 8.1274 13.051 7.73244 13.0782 7.27416Z" fill="white"/>
<path d="M8.30609 6.53758C8.22688 6.53758 8.14706 6.54425 8.06785 6.55702C7.32168 6.67534 6.8204 7.3336 6.95041 8.02352C7.01511 8.35682 7.21647 8.64734 7.51941 8.8412C7.81872 9.03341 8.18818 9.1084 8.54857 9.04896C8.60238 9.04063 8.65257 9.02896 8.70336 9.01563C9.37274 8.83398 9.78694 8.21794 9.66782 7.58246C9.54749 6.97753 8.97486 6.53758 8.30609 6.53758Z" fill="white"/>
<path d="M2.87732 9.92552C3.13068 10.4738 3.71117 10.8282 4.35635 10.8282C4.50873 10.8282 4.66051 10.8082 4.80805 10.7682C4.86912 10.7521 4.9308 10.731 4.99126 10.7077C5.39035 10.551 5.69873 10.2622 5.85776 9.89497C6.0174 9.53001 6.01256 9.1295 5.84325 8.76788C5.58989 8.22016 5.00819 7.86687 4.35998 7.86687C4.14351 7.86687 3.93187 7.90687 3.73052 7.98519C2.9142 8.3046 2.53144 9.17505 2.87732 9.92552Z" fill="white"/>
<path d="M19.5615 10.9748C19.4406 10.9132 19.3003 10.8804 19.1558 10.8804C18.8317 10.8804 18.5287 11.0382 18.3842 11.2826C18.1526 11.667 18.3044 12.1514 18.721 12.3636C18.9248 12.4691 19.1642 12.4941 19.3862 12.4336C19.6051 12.3741 19.7889 12.2386 19.9044 12.0525C20.1317 11.6703 19.9781 11.1859 19.5615 10.9748Z" fill="white"/>
<path d="M15.723 11.4587C15.8536 11.6742 16.0683 11.8309 16.3271 11.8992C16.4172 11.922 16.5109 11.9336 16.6047 11.9336C16.7026 11.9336 16.7994 11.9209 16.8925 11.8959C17.2275 11.8053 17.4845 11.567 17.5794 11.2593C17.7294 10.7665 17.4179 10.2516 16.8864 10.1133C16.8018 10.0911 16.7141 10.0794 16.6252 10.0794C16.1753 10.0794 15.7593 10.3605 15.6366 10.7482C15.5604 10.9876 15.5912 11.2398 15.723 11.4587Z" fill="white"/>
<path d="M14.6903 10.9132C14.7223 10.3171 14.2198 9.80665 13.5704 9.77665L13.5148 9.77554C12.9053 9.77554 12.3647 10.2455 12.3344 10.8015C12.3 11.3976 12.8006 11.9086 13.4501 11.9408L13.5081 11.942C13.623 11.942 13.7361 11.927 13.8443 11.8975C14.3214 11.7681 14.6612 11.3726 14.6903 10.9132Z" fill="white"/>
<path d="M9.91936 12.7097C9.99858 12.7097 10.079 12.703 10.1576 12.6902C10.2096 12.6819 10.2592 12.6713 10.3076 12.6574C10.9818 12.4752 11.3972 11.8581 11.2738 11.2226C11.1559 10.616 10.5845 10.1761 9.91574 10.1761C9.83592 10.1761 9.75489 10.1827 9.67568 10.1955C8.92951 10.3177 8.42945 10.9776 8.56126 11.6664C8.68039 12.2708 9.25059 12.7097 9.91936 12.7097Z" fill="white"/>
<path d="M7.46499 13.5412C7.62644 13.1729 7.62281 12.7708 7.4541 12.4086C7.20316 11.8709 6.60212 11.5098 5.95814 11.5098C5.74348 11.5098 5.53547 11.5492 5.34016 11.6264C4.94228 11.7798 4.63571 12.0653 4.47426 12.4302C4.31161 12.7974 4.31584 13.2013 4.48636 13.5673C4.74093 14.1145 5.32262 14.4683 5.96842 14.4683C6.122 14.4683 6.27499 14.4478 6.42374 14.4078C6.4836 14.3917 6.54165 14.3722 6.6003 14.3495C6.99697 14.1956 7.30414 13.9084 7.46499 13.5412Z" fill="white"/>
<path d="M3.41306 14.6983C3.05811 14.2511 2.4867 13.9839 1.88383 13.9839C1.70364 13.9839 1.52466 14.0078 1.35172 14.055C1.14553 14.1106 0.951425 14.1989 0.774256 14.3172C0.367914 14.5889 0.101252 14.9905 0.0232487 15.4482C-0.0547544 15.9059 0.0649714 16.3637 0.360658 16.737C0.714393 17.1847 1.28702 17.4519 1.89109 17.4519C2.07128 17.4519 2.24966 17.428 2.4226 17.3813C2.62819 17.3258 2.82229 17.238 2.99825 17.1203C3.83875 16.5559 4.02499 15.4693 3.41306 14.6983Z" fill="white"/>
<path d="M23.7108 20.7698C23.6829 20.4682 23.4012 20.2316 23.0704 20.2316C23.0517 20.2316 23.0335 20.2321 23.0148 20.2338C22.7421 20.2549 22.5147 20.436 22.4494 20.6843C22.4331 20.746 22.4282 20.8076 22.4337 20.8737C22.4639 21.1731 22.7427 21.4081 23.0692 21.4081C23.0873 21.4081 23.1055 21.4075 23.1242 21.4059C23.2893 21.3937 23.4471 21.317 23.5584 21.1965C23.6709 21.0748 23.7247 20.9232 23.7108 20.7698Z" fill="white"/>
<path d="M24.1606 20.1155C24.1286 20.2399 24.134 20.3693 24.1776 20.4904C24.3015 20.8409 24.7302 21.0431 25.1166 20.9282C25.2956 20.8743 25.4498 20.7487 25.5405 20.5837C25.6312 20.4182 25.6494 20.2299 25.5901 20.0655C25.5302 19.8905 25.399 19.7494 25.2206 19.6672C25.116 19.6177 25.0011 19.5922 24.8869 19.5922C24.8089 19.5922 24.7315 19.6044 24.6571 19.6272C24.4055 19.7 24.2211 19.8827 24.1606 20.1155Z" fill="white"/>
<path d="M25.9614 19.03C25.9069 19.235 25.9426 19.4461 26.0617 19.6255C26.1809 19.8088 26.3695 19.9372 26.5939 19.9888C26.664 20.0049 26.736 20.0133 26.8067 20.0133C26.9621 20.0133 27.1145 19.9738 27.2487 19.8988C27.6436 19.6789 27.7826 19.1678 27.5456 18.8051C27.389 18.5695 27.103 18.4223 26.8001 18.4223C26.644 18.4223 26.4911 18.4612 26.3574 18.534C26.1567 18.6451 26.0158 18.8212 25.9614 19.03Z" fill="white"/>
<path d="M28.6993 18.4607C28.9612 18.4607 29.2103 18.3679 29.4002 18.2001C29.7841 17.8574 29.7944 17.2425 29.4219 16.8847C29.2321 16.7064 28.9739 16.6075 28.6975 16.6075C28.4315 16.6075 28.1799 16.7003 27.9882 16.8681C27.8552 16.9881 27.7603 17.1419 27.7155 17.3119C27.6333 17.6246 27.7288 17.9485 27.9707 18.1785C28.1254 18.3251 28.3241 18.4189 28.5407 18.4497C28.5736 18.4543 28.6045 18.4667 28.6302 18.4851C28.6399 18.492 28.6999 18.4731 28.6999 18.4612C28.6999 18.4609 28.6997 18.4607 28.6993 18.4607Z" fill="white"/>
<path d="M31.3726 15.7326C31.7197 15.2405 31.5594 14.5528 31.0231 14.2306C30.8326 14.1178 30.6119 14.0584 30.3858 14.0584C29.9825 14.0584 29.6118 14.2434 29.3947 14.5528C29.3221 14.6561 29.2689 14.7689 29.2369 14.8888C29.1196 15.3349 29.3228 15.8015 29.7412 16.0504C29.9335 16.1654 30.1548 16.2259 30.3815 16.2259C30.4656 16.2259 30.5515 16.2176 30.6349 16.2015C30.9427 16.1398 31.2045 15.9732 31.3726 15.7326Z" fill="white"/>
<path d="M32.0994 10.8021C31.9483 10.7515 31.7904 10.726 31.6308 10.726C31.0527 10.726 30.5303 11.0621 30.332 11.5615C30.3138 11.6059 30.2999 11.6509 30.2872 11.6959C30.1227 12.3219 30.4964 12.9618 31.1561 13.1824C31.3055 13.2313 31.4621 13.2568 31.6205 13.2568C32.201 13.2568 32.7235 12.9219 32.9206 12.423C33.1727 11.7648 32.8045 11.0371 32.0994 10.8021Z" fill="white"/>
<path d="M20.7636 18.9295C20.7315 19.0511 20.737 19.1789 20.7793 19.2989C20.8404 19.4728 20.9728 19.6133 21.15 19.6961C21.2552 19.745 21.367 19.77 21.4837 19.77C21.5624 19.77 21.641 19.7583 21.7171 19.735C21.8979 19.6816 22.0533 19.5566 22.144 19.3917C22.2348 19.2278 22.2529 19.0406 22.1942 18.8784C22.1332 18.7045 22.0026 18.5629 21.8242 18.479C21.7184 18.4284 21.6047 18.4029 21.4868 18.4029C21.41 18.4029 21.3332 18.414 21.2576 18.4362C21.0103 18.5118 20.8246 18.6967 20.7636 18.9295Z" fill="white"/>
<path d="M23.1968 18.7978C23.4175 18.8473 23.6588 18.8145 23.8547 18.7056C24.2519 18.484 24.3868 17.9818 24.1485 17.6091C23.9889 17.3724 23.7096 17.2297 23.403 17.2297C23.2458 17.2297 23.0916 17.2697 22.9579 17.3441C22.7584 17.4552 22.6187 17.6302 22.5643 17.8374C22.5105 18.0435 22.5462 18.2551 22.6665 18.4323C22.7844 18.6162 22.9725 18.7451 23.1968 18.7978Z" fill="white"/>
<path d="M25.2992 17.2691C25.5647 17.2691 25.815 17.1764 26.0031 17.0075C26.1875 16.8442 26.2958 16.6075 26.3 16.3576C26.3048 16.1065 26.205 15.8648 26.0267 15.6954C25.8356 15.5138 25.5774 15.4138 25.3011 15.4138C25.0368 15.4138 24.7877 15.506 24.5984 15.6738C24.4612 15.7971 24.3644 15.9532 24.3197 16.1231C24.2386 16.4331 24.3342 16.7564 24.5761 16.9886C24.7309 17.134 24.9302 17.2276 25.1476 17.2582C25.2263 17.2693 25.2921 17.3277 25.2986 17.4047V17.2697C25.2986 17.2694 25.2989 17.2691 25.2992 17.2691Z" fill="white"/>
<path d="M27.9749 14.5411C28.1418 14.3056 28.1975 14.0178 28.1315 13.7301C28.0662 13.4446 27.883 13.194 27.6291 13.0424C27.4386 12.9291 27.2179 12.8691 26.9905 12.8691C26.5878 12.8691 26.2171 13.0535 25.9989 13.3629C25.9251 13.4657 25.8725 13.579 25.8404 13.6995C25.7243 14.1428 25.9281 14.6089 26.3465 14.86C26.5388 14.9744 26.7595 15.0349 26.9851 15.0349C27.0685 15.0349 27.1532 15.0266 27.236 15.0105C27.5438 14.9488 27.8056 14.7822 27.9749 14.5411Z" fill="white"/>
<path d="M27.7615 11.9914C27.9102 12.0403 28.0662 12.0653 28.2247 12.0653C28.8058 12.0653 29.3288 11.7303 29.5271 11.2315C29.7884 10.5788 29.4183 9.85109 28.7036 9.6089C28.5512 9.55779 28.3922 9.53224 28.2319 9.53224C28.03 9.53224 27.834 9.57279 27.649 9.65223C27.3158 9.79554 27.0637 10.0494 26.9385 10.3677C26.9198 10.4149 26.9047 10.461 26.892 10.5077C26.7287 11.1309 27.103 11.7687 27.7615 11.9914Z" fill="white"/>
<path d="M28.5554 8.35626C28.6213 8.36404 28.6866 8.36737 28.7519 8.36737C29.5634 8.36737 30.2503 7.80799 30.3495 7.06586C30.4565 6.25706 29.8277 5.51714 28.9466 5.41716C28.8801 5.40938 28.8136 5.40605 28.7483 5.40605C28.0034 5.40605 27.3618 5.86877 27.1876 6.53203C27.1725 6.58869 27.161 6.64813 27.1532 6.70812C27.1012 7.10363 27.2197 7.49303 27.4858 7.8041C27.75 8.11351 28.1297 8.3096 28.5554 8.35626Z" fill="white"/>
<path d="M20.0041 17.6696C20.0598 17.4619 20.0265 17.2458 19.9134 17.0764C19.7574 16.8381 19.4732 16.6909 19.1697 16.6909C19.0137 16.6909 18.8601 16.7303 18.7259 16.8047C18.5233 16.9147 18.3824 17.0903 18.328 17.2986C18.2742 17.5024 18.3098 17.7169 18.4284 17.9013C18.5862 18.139 18.8637 18.2818 19.1703 18.2818C19.3275 18.2818 19.4817 18.2423 19.6159 18.1679C19.8064 18.0618 19.9479 17.8807 20.0041 17.6696Z" fill="white"/>
<path d="M21.0665 16.7275C21.3308 16.7275 21.5787 16.6353 21.7655 16.4681C22.1531 16.1265 22.1646 15.5138 21.7921 15.156C21.6041 14.9772 21.3513 14.875 21.0786 14.87C20.8017 14.87 20.5519 14.9622 20.3615 15.1305C20.2248 15.2544 20.1275 15.411 20.0821 15.5815C20.0005 15.8932 20.0966 16.217 20.3391 16.447C20.5308 16.6275 20.7896 16.7275 21.0665 16.7275Z" fill="white"/>
<path d="M22.1102 14.3217C22.3001 14.4345 22.5214 14.4944 22.7481 14.4944C23.1514 14.4944 23.5233 14.3089 23.7416 13.9989C24.0826 13.5146 23.92 12.8158 23.3939 12.503C23.2028 12.3886 22.9815 12.328 22.7542 12.328C22.3521 12.328 21.9814 12.5125 21.7619 12.8213C21.6887 12.9252 21.6361 13.0385 21.6053 13.1563C21.4886 13.6012 21.6911 14.0695 22.1102 14.3217Z" fill="white"/>
<path d="M24.463 9.06952C24.313 9.01952 24.1564 8.99452 23.9974 8.99452C23.4193 8.99452 22.8981 9.32893 22.6997 9.82721C22.6816 9.8722 22.6671 9.91664 22.6556 9.96219C22.4905 10.5905 22.8642 11.2293 23.5245 11.4492C23.6757 11.4992 23.8335 11.5248 23.9925 11.5248C24.5724 11.5248 25.0943 11.1898 25.2914 10.691C25.5508 10.0372 25.1783 9.30949 24.463 9.06952Z" fill="white"/>
<path d="M24.7091 4.87666C24.6432 4.86944 24.5779 4.86611 24.5138 4.86611C23.767 4.86611 23.123 5.33161 22.9483 5.9982C22.9338 6.05375 22.9223 6.1093 22.915 6.16707C22.8624 6.56091 22.9797 6.94865 23.2452 7.25972C23.5112 7.57246 23.8928 7.77078 24.3185 7.81744C24.3807 7.8241 24.4436 7.82799 24.5053 7.82799C25.3138 7.82799 26.0188 7.25639 26.1113 6.52703C26.1657 6.13374 26.0503 5.74656 25.7866 5.43604C25.5224 5.12275 25.1396 4.92444 24.7091 4.87666Z" fill="white"/>
<path d="M23.9786 3.46738C24.0451 3.46738 24.1129 3.46405 24.18 3.45738C24.9727 3.37906 25.6306 2.84967 25.8168 2.13975C25.8676 1.94755 25.8809 1.74869 25.8586 1.54927C25.7564 0.666035 24.9503 0 23.9841 0C23.9176 0 23.851 0.00333295 23.7839 0.00999885C22.9906 0.0861012 22.3321 0.61604 22.1447 1.32818C22.0945 1.52149 22.0806 1.7198 22.1035 1.917C22.2075 2.80023 23.0136 3.46738 23.9786 3.46738Z" fill="white"/>
<path d="M9.0184 15.6093C8.96821 15.566 8.91258 15.531 8.84788 15.5027C8.76504 15.4677 8.67494 15.4493 8.58122 15.4493C8.33209 15.4493 8.10413 15.5815 8.00013 15.786C7.92938 15.9237 7.92212 16.0876 7.98078 16.2365C8.03943 16.3864 8.15553 16.5053 8.30791 16.5709C8.39256 16.6075 8.48326 16.6259 8.57699 16.6259C8.82611 16.6259 9.05529 16.4925 9.1605 16.2854C9.2772 16.057 9.22036 15.7854 9.0184 15.6093Z" fill="white"/>
<path d="M8.33814 17.0819C8.28553 17.0714 8.23292 17.0664 8.18092 17.0664C7.83323 17.0664 7.52787 17.2947 7.45471 17.6096C7.41601 17.7785 7.45773 17.9652 7.56778 18.1196C7.67844 18.274 7.84714 18.3829 8.03157 18.4173C8.23051 18.4579 8.42521 18.4223 8.59271 18.3229C8.7602 18.2229 8.87328 18.0701 8.91137 17.8941C8.96821 17.658 8.88839 17.4202 8.69913 17.2547C8.59754 17.1669 8.47238 17.1064 8.33814 17.0819Z" fill="white"/>
<path d="M8.23111 20.7393C8.23799 20.6622 8.30407 20.6039 8.38259 20.5904C8.79075 20.5204 9.0987 20.1868 9.09217 19.7938C9.08733 19.5783 8.99179 19.3783 8.82248 19.2306C8.66224 19.09 8.45303 19.0128 8.23413 19.0128C7.97896 19.0161 7.76309 19.1017 7.60225 19.2539C7.4408 19.4072 7.35494 19.6089 7.35977 19.8205C7.36899 20.195 7.69706 20.5276 8.09211 20.5924C8.16815 20.6048 8.23111 20.6644 8.23111 20.7393Z" fill="white"/>
<path d="M8.88839 23.0812C8.96458 23.0812 9.04077 23.0729 9.11454 23.0562C9.65028 22.9301 9.97983 22.4219 9.84741 21.9241C9.80024 21.7581 9.70289 21.6059 9.56502 21.4848C9.37395 21.3187 9.12603 21.227 8.86662 21.227C8.78378 21.227 8.70094 21.2364 8.61992 21.2548C8.3593 21.3148 8.13859 21.4653 7.99891 21.6786C7.86044 21.8903 7.81993 22.1402 7.88463 22.3802C7.99529 22.7796 8.42642 23.0812 8.88839 23.0812Z" fill="white"/>
<path d="M10.8155 25.6571C11.393 25.3838 11.6227 24.7305 11.3258 24.2011C11.2648 24.0911 11.185 23.9922 11.0882 23.9078C10.8681 23.7151 10.5791 23.6095 10.2743 23.6095C10.0893 23.6095 9.90485 23.6501 9.74099 23.7273C9.45921 23.86 9.24938 24.0861 9.15203 24.3639C9.05589 24.6388 9.08189 24.9299 9.2252 25.1843C9.42293 25.5404 9.84257 25.7698 10.2943 25.7698C10.4793 25.7704 10.6547 25.732 10.8155 25.6571Z" fill="white"/>
<path d="M13.6774 26.442C13.6448 26.4053 13.6091 26.3714 13.5722 26.3386C13.3152 26.1148 12.9778 25.9909 12.6229 25.9909C12.3 25.9909 11.9849 26.0964 11.7364 26.2875C11.1583 26.738 11.0834 27.5379 11.5707 28.0712C11.8374 28.3567 12.225 28.5212 12.6331 28.5212C12.9542 28.5212 13.2656 28.4173 13.5099 28.2279C14.091 27.7785 14.166 26.9775 13.6774 26.442Z" fill="white"/>
<path d="M11.1602 14.9733C11.1094 14.9633 11.0574 14.9588 11.0054 14.9588C10.8621 14.9588 10.7218 14.9972 10.5996 15.0699C10.4333 15.1699 10.3203 15.3232 10.2804 15.5016C10.2398 15.6721 10.2798 15.8582 10.3898 16.0132C10.4986 16.167 10.6661 16.2754 10.8488 16.3092C11.0471 16.3492 11.243 16.3137 11.4105 16.2148C11.5768 16.117 11.6917 15.9643 11.7346 15.7854C11.7872 15.5504 11.7056 15.3105 11.5169 15.1449C11.4178 15.0594 11.2944 14.9994 11.1602 14.9733Z" fill="white"/>
<path d="M11.0604 18.6345C11.0645 18.5577 11.1292 18.4981 11.2072 18.4842C11.6157 18.4113 11.9233 18.076 11.913 17.6835C11.9081 17.4697 11.8126 17.2713 11.6451 17.1241C11.4849 16.9847 11.2781 16.9075 11.061 16.9075L11.0302 16.9081C10.801 16.9103 10.5857 16.9953 10.4243 17.1475C10.264 17.3019 10.1776 17.5047 10.1818 17.718C10.1905 18.0985 10.5168 18.426 10.9213 18.4883C10.9975 18.5001 11.0604 18.5597 11.0604 18.6345Z" fill="white"/>
<path d="M10.8197 19.5744C10.6825 19.7872 10.6426 20.036 10.7079 20.2743C10.8161 20.6743 11.2454 20.9754 11.7062 20.9754C11.783 20.9754 11.8598 20.967 11.9335 20.9498C12.4729 20.8254 12.8025 20.3204 12.6676 19.8244C12.6198 19.6533 12.5219 19.4989 12.3834 19.3778C12.1942 19.2128 11.9462 19.1217 11.6856 19.1217C11.6034 19.1217 11.5205 19.1311 11.4395 19.1495C11.1807 19.21 10.9594 19.3611 10.8197 19.5744Z" fill="white"/>
<path d="M11.9753 22.2552C11.8791 22.5302 11.9045 22.8224 12.0478 23.0773C12.2443 23.434 12.664 23.6639 13.1163 23.6639C13.2977 23.6639 13.4767 23.6251 13.6333 23.5517C14.2114 23.2807 14.4417 22.6268 14.1467 22.0947C14.0862 21.9847 14.0058 21.8858 13.9084 21.7997C13.6907 21.6097 13.4029 21.5047 13.0981 21.5047C12.9125 21.5047 12.7269 21.5453 12.5618 21.6225C12.28 21.7536 12.072 21.9786 11.9753 22.2552Z" fill="white"/>
<path d="M16.4994 24.3389C16.4644 24.3 16.4281 24.265 16.39 24.2311C16.1354 24.0089 15.7998 23.8856 15.4455 23.8856C15.1226 23.8856 14.807 23.9906 14.5578 24.1817C13.9804 24.6322 13.9054 25.4332 14.3915 25.9665C14.6528 26.2542 15.0361 26.4192 15.4425 26.4192C15.766 26.4192 16.0822 26.3142 16.3319 26.1226C16.6143 25.9042 16.7873 25.5982 16.8187 25.261C16.8502 24.9249 16.7365 24.5977 16.4994 24.3389Z" fill="white"/>
<path d="M19.9908 26.4553C19.9449 26.4153 19.8947 26.3764 19.8421 26.3398C19.5585 26.1442 19.2235 26.0409 18.874 26.0409C18.7972 26.0409 18.7198 26.0459 18.6424 26.0564C18.2191 26.112 17.8442 26.3164 17.5873 26.6314C17.3303 26.9452 17.2208 27.333 17.2795 27.7235C17.3381 28.1162 17.5613 28.464 17.9065 28.7028C18.1871 28.8972 18.5215 29 18.8734 29C19.385 29 19.8548 28.7856 20.162 28.4123C20.6542 27.8124 20.581 26.9708 19.9908 26.4553Z" fill="white"/>
<path d="M13.669 15.5315C13.6801 15.4538 13.7483 15.3971 13.828 15.3838C14.2386 15.3154 14.5466 14.9824 14.5385 14.5878C14.5361 14.3717 14.4417 14.1717 14.2724 14.0239C14.1086 13.8812 13.8921 13.8023 13.6617 13.8023C13.1798 13.8123 12.8 14.1767 12.8091 14.6139C12.8162 14.9878 13.14 15.3207 13.5311 15.3857C13.6065 15.3982 13.669 15.4573 13.669 15.5315Z" fill="white"/>
<path d="M13.3352 17.1736C13.4428 17.5741 13.8721 17.8752 14.3341 17.8752C14.4103 17.8752 14.4859 17.8668 14.559 17.8507C14.8221 17.7907 15.0446 17.6402 15.1843 17.4269C15.3221 17.2152 15.3627 16.9658 15.298 16.7253C15.2496 16.5542 15.151 16.3992 15.0119 16.2776C14.8227 16.1115 14.5754 16.0209 14.3166 16.0209C14.2331 16.0209 14.1497 16.0304 14.0686 16.0493C13.5293 16.1765 13.1997 16.6814 13.3352 17.1736Z" fill="white"/>
<path d="M14.6751 19.9799C14.8723 20.3343 15.2913 20.5626 15.7424 20.5626C15.9238 20.5626 16.1028 20.5238 16.2594 20.4504C16.8381 20.1805 17.0697 19.5266 16.7752 18.9934C16.7135 18.8834 16.6337 18.7851 16.5375 18.7006C16.318 18.509 16.0284 18.4029 15.7224 18.4029C15.5374 18.4029 15.3524 18.4434 15.1867 18.5201C14.6086 18.7934 14.3788 19.4483 14.6751 19.9799Z" fill="white"/>
<path d="M17.017 22.8679C17.2795 23.154 17.6622 23.3184 18.068 23.3184C18.3933 23.3184 18.7101 23.2123 18.9605 23.019C19.5391 22.5707 19.6147 21.7714 19.128 21.2376C19.0947 21.202 19.0596 21.1676 19.0228 21.1354C18.7646 20.9093 18.4271 20.7848 18.0728 20.7848C17.7493 20.7848 17.4343 20.8904 17.1857 21.0826C16.6053 21.5331 16.5297 22.3341 17.017 22.8679Z" fill="white"/>
<path d="M22.7911 25.311C23.2821 24.7094 23.2059 23.8656 22.6145 23.349C22.5691 23.3095 22.5226 23.2723 22.4718 23.2379C22.1894 23.0424 21.8556 22.939 21.5061 22.939C21.4299 22.939 21.3531 22.944 21.2769 22.954C20.8488 23.009 20.4721 23.214 20.2145 23.5295C19.9581 23.8445 19.8517 24.2372 19.9146 24.635C19.9769 25.0277 20.197 25.371 20.5344 25.6015C20.8174 25.7987 21.1518 25.9026 21.5019 25.9026C21.5763 25.9026 21.6506 25.8981 21.725 25.8887C22.1519 25.8354 22.5304 25.6298 22.7911 25.311Z" fill="white"/>
<path d="M27.4186 25.046C27.2626 24.9099 27.083 24.7994 26.8841 24.7177C26.6422 24.6194 26.3858 24.57 26.1228 24.57C25.3742 24.57 24.6958 24.9744 24.3934 25.5998C24.0705 26.2703 24.2411 27.0586 24.8173 27.5613C24.9721 27.6963 25.1529 27.8068 25.3543 27.8901C25.5955 27.9885 25.8519 28.0385 26.115 28.0385C26.8617 28.0385 27.5396 27.6341 27.8425 27.008C28.1666 26.3392 27.9967 25.5504 27.4186 25.046Z" fill="white"/>
</svg>
